<svg xmlns="http://www.w3.org/2000/svg" xmlns:xlink="http://www.w3.org/1999/xlink" version="1.1" x="0px" y="0px" viewBox="0 0 100 125" enable-background="new 0 0 100 100" xml:space="preserve"><g><g><path d="M17.499,48.689l1.073,1.005c0,0-0.846,5.62,0.939,7.943c2.146,2.791,4.936,1.457,5.735,1.928    c0.381,0.225,1.269,3.056,1.269,3.056s1.175-9.59-1.058-12.223C22.642,47.076,17.499,48.689,17.499,48.689z M25.905,58.53    c0,0-4.154,0.47-5.499-1.222c-1.74-2.186-0.507-7.313-0.507-7.313s2.904-0.183,3.515,0.545c-0.87,1.927-1.361,5.27,0,5.593    c0.963,0.229,1.856-2.538,1.974-3.432C26.351,52.702,25.905,58.53,25.905,58.53z"/><path d="M12.697,7.345c3.204,0.973,9.967,7.579,15.123,12.902c1.825,1.884,3.913,5.006,3.913,5.006s-5.741-3.451-8.883-3.451    c1.622,0.983,5.111,4.085,5.111,4.085s-2.714-1.692-5.217-0.882c2.15,0.917,4.477,3.349,4.477,3.349s-4.567-1.934-6.471-0.771    c1.163,0.705,3.75,2.5,3.75,2.5c-0.723-0.377-3.254-1.63-4.667-0.5c1.375,0.709,1.586,2.549,1.586,2.549l-2.12,0.479L19,34.729    l0.771-1.75l2.208-0.458c0,0-0.396-2.417-1.25-2.813c1.458-0.688,4.792,1.375,4.792,1.375s-0.479-1.521-2.671-2.87    c1.284-0.61,5.499,1.058,5.499,1.058s-1.41-2.785-4.09-3.819c1.833-0.247,5.958,1.986,5.958,1.986s-3.102-3.243-5.252-4.653    c1.093,0.07,4.772,2.168,6.451,3.031c0.764,0.393,1.303,0.282,1.205-0.389c-0.182-1.232-3.259-4.423-4.413-5.675    C25.37,16.674,14.107,5.16,12.697,7.345z"/><path d="M85.975,14.114c-1.896,0-7.051,2.82-7.051,2.82s-8.646,5.679-11.094,8.085c-1.891,1.858-6.392,8.46-6.392,8.46    l0.752,0.564c0,0,7.028-5.501,9.824-5.547c-3.197,1.458-7.146,6.346-7.146,6.346s4.979-2.744,6.535-2.444    c-1.974,0.751-4.607,4.136-4.607,4.136s4.036-1.559,5.735-0.658c-0.987,0.329-3.393,2.818-3.393,2.818s5.993-0.66,6.885,0.844    c-1.445,0.141-3.083,2.178-3.083,2.178s3.002-0.298,3.42,0.423c-0.634,0.317-1.41,2.787-1.41,2.787l3.032,3.257l-2.397-3.33    c0,0,0.74-2.221,1.521-2.727c-0.647-1.153-2.86-0.939-2.86-0.939s1.551-1.093,2.785-1.481c-2.256-2.925-6.187-1.669-6.187-1.669    s1.734-1.738,3.285-2.302c-1.749-1.682-5.422-0.344-5.422-0.344s2.696-2.382,4.576-3.651c-2.849-0.94-5.817,1.075-5.817,1.075    s3.797-3.66,6.804-4.788c-3.901-1.833-10.774,4.275-10.774,4.275s3.292-4.751,4.798-6.31c2.353-2.436,7.376-5.933,10.425-7.788    c2.098-1.275,5.584-3.003,7.256-3.339c0.438-0.087,1.787,0,1.787,0S87.244,14.114,85.975,14.114z"/><path d="M34.491,79.621c-0.125,1.967,5.112,3.839,7.123,4.614c3.03,1.167,7.982,1.615,11.114,0.774    c7.691-2.069,1.991-5.758,1.991-5.758s3.866,4.054-5.123,3.894c-3.924-0.069-6.769-6.169-10.686-6.432    C36.026,76.521,34.662,76.944,34.491,79.621z"/><g><path fill="none" d="M60.655,67.36c0.104-0.013,0.207-0.048,0.306-0.112c-0.021-0.003-0.033-0.019-0.056-0.019     C60.791,67.229,60.716,67.283,60.655,67.36z"/><path fill="none" d="M60.908,68.604c0.185,0,0.332,0.218,0.345,0.493c0.1-0.169,0.145-0.429,0.145-0.786     c0-0.141-0.009-0.267-0.022-0.387c-0.271,0.196-0.575,0.26-0.89,0.235c0,0.053-0.005,0.097-0.005,0.151     c0,0.331,0.018,0.583,0.084,0.754C60.589,68.806,60.729,68.604,60.908,68.604z"/><path fill="none" d="M60.908,66.643c0.152,0,0.295,0.072,0.423,0.191c0.853-1.359,0.321-2.042-0.051-2.318     c-0.605,0.775-1.319,1.462-2.122,2.044c0.225,0.237,0.608,0.587,1.014,0.739C60.344,66.902,60.605,66.643,60.908,66.643z"/><path fill="none" d="M60.564,81.026c0.024-0.259,0.165-0.459,0.344-0.459c0.185,0,0.332,0.217,0.345,0.491     c0.1-0.169,0.145-0.43,0.145-0.786c0-0.352-0.043-0.633-0.138-0.824v0.024c0,0.295-0.158,0.531-0.352,0.531     c-0.192,0-0.346-0.229-0.351-0.516c-0.062,0.191-0.077,0.463-0.077,0.784C60.48,80.604,60.498,80.855,60.564,81.026z"/><path fill="none" d="M60.573,77.066c0.037-0.229,0.169-0.401,0.335-0.401c0.172,0,0.306,0.188,0.339,0.433     c0.104-0.168,0.15-0.431,0.15-0.796c0-0.357-0.045-0.642-0.145-0.833c-0.013,0.273-0.16,0.491-0.345,0.491     c-0.179,0-0.317-0.198-0.344-0.456c-0.066,0.191-0.084,0.466-0.084,0.798C60.48,76.642,60.5,76.896,60.573,77.066z"/><path fill="none" d="M60.564,87.468c-0.031,0.09-0.051,0.198-0.063,0.322c0.05-0.018,0.091-0.035,0.141-0.053     C60.6,87.662,60.573,87.569,60.564,87.468z"/><path fill="none" d="M62.613,58.368c0-4.088-2.428-7.479-6.11-8.956c3.246,1.777,5.416,4.908,5.416,8.804     c0,4.135-2.026,7.243-5.604,8.916C60.337,65.916,62.613,62.72,62.613,58.368z"/><path fill="none" d="M60.569,73.044c0.034-0.238,0.169-0.421,0.339-0.421c0.176,0,0.314,0.197,0.341,0.451     c0.102-0.169,0.148-0.429,0.148-0.792c0-0.356-0.045-0.641-0.145-0.833c-0.013,0.275-0.16,0.493-0.345,0.493     c-0.179,0-0.317-0.2-0.344-0.457c-0.066,0.19-0.084,0.466-0.084,0.797C60.48,72.62,60.5,72.874,60.569,73.044z"/><path fill="none" d="M28.254,74.981c0.363,0.674,0.659,4.136,0.659,4.136l0.557-0.669c0,0,0.57-2.839,1.1-3.278     c0.77-0.639,2.204,0.173,3.173-0.07c0.151-0.038,0.357-0.138,0.58-0.257c-0.143-0.268-0.423-0.774-0.569-0.926     c-0.184-0.189-0.593-0.557-0.846-0.635c-1.315-0.4-4.203,0.458-5.5,0c-0.356-0.125-0.791-0.689-1.128-0.86     c-0.297-0.151-1.198-0.109-1.547-0.067c0.116,0.125,0.119,0.143,0.231,0.313c0.846,1.27,1.608,3.911,2.362,4.82     c0.449,0.543,0.705,1.085,0.705,1.085S27.691,74.983,28.254,74.981z"/><path fill="none" d="M61.236,89.073c0.063-0.098,0.114-0.223,0.137-0.396c-0.077,0.027-0.157,0.054-0.236,0.079     C61.192,88.839,61.225,88.95,61.236,89.073z"/><path fill="none" d="M60.558,85.083c0.014-0.277,0.16-0.498,0.348-0.498c0.196,0,0.353,0.237,0.353,0.531v0.002     c0.097-0.169,0.14-0.427,0.14-0.779c0-0.368-0.049-0.658-0.153-0.849c-0.036,0.236-0.169,0.414-0.336,0.414     c-0.162,0-0.289-0.161-0.333-0.381c-0.073,0.193-0.095,0.472-0.095,0.815C60.48,84.661,60.496,84.912,60.558,85.083z"/><path fill="none" d="M60.566,88.942c-0.009,0.002-0.015,0.005-0.022,0.007c0.004,0.018,0.008,0.041,0.014,0.058     C60.561,88.985,60.561,88.962,60.566,88.942z"/><path fill="none" d="M61.253,87.43c-0.002,0.025-0.006,0.05-0.011,0.075c0.018-0.005,0.034-0.012,0.049-0.019     C61.282,87.463,61.266,87.45,61.253,87.43z"/><path fill="none" d="M60.893,91.944c-0.157,0-0.282-0.152-0.33-0.361c-0.064,0.192-0.082,0.465-0.082,0.794     s0.018,0.581,0.084,0.752c0.024-0.258,0.165-0.457,0.341-0.457c0.188,0,0.335,0.217,0.348,0.49     c0.1-0.168,0.145-0.428,0.145-0.785c0-0.382-0.052-0.679-0.166-0.868C61.201,91.757,61.064,91.944,60.893,91.944z"/><path fill="none" d="M60.905,96.009c-0.163,0-0.295-0.171-0.334-0.399c-0.08,0.191-0.104,0.476-0.104,0.833     c0,0.638,0.055,1,0.425,1c0.369,0,0.491-0.362,0.491-1c0-0.356-0.044-0.641-0.144-0.832     C61.201,95.839,61.071,96.009,60.905,96.009z"/><g><path fill="none" d="M60.655,67.36c0.104-0.013,0.207-0.048,0.306-0.112c-0.021-0.003-0.033-0.019-0.056-0.019      C60.791,67.229,60.716,67.283,60.655,67.36z"/><path fill="none" d="M60.908,66.643c0.152,0,0.295,0.072,0.423,0.191c0.853-1.359,0.321-2.042-0.051-2.318      c-0.605,0.775-1.319,1.462-2.122,2.044c0.225,0.237,0.608,0.587,1.014,0.739C60.344,66.902,60.605,66.643,60.908,66.643z"/><path fill="none" d="M60.573,77.066c0.037-0.229,0.169-0.401,0.335-0.401c0.172,0,0.306,0.188,0.339,0.433      c0.104-0.168,0.15-0.431,0.15-0.796c0-0.357-0.045-0.642-0.145-0.833c-0.013,0.273-0.16,0.491-0.345,0.491      c-0.179,0-0.317-0.198-0.344-0.456c-0.066,0.191-0.084,0.466-0.084,0.798C60.48,76.642,60.5,76.896,60.573,77.066z"/><path fill="none" d="M60.569,73.044c0.034-0.238,0.169-0.421,0.339-0.421c0.176,0,0.314,0.197,0.341,0.451      c0.102-0.169,0.148-0.429,0.148-0.792c0-0.356-0.045-0.641-0.145-0.833c-0.013,0.275-0.16,0.493-0.345,0.493      c-0.179,0-0.317-0.2-0.344-0.457c-0.066,0.19-0.084,0.466-0.084,0.797C60.48,72.62,60.5,72.874,60.569,73.044z"/><path fill="none" d="M60.908,68.604c0.185,0,0.332,0.218,0.345,0.493c0.1-0.169,0.145-0.429,0.145-0.786      c0-0.141-0.009-0.267-0.022-0.387c-0.271,0.196-0.575,0.26-0.89,0.235c0,0.053-0.005,0.097-0.005,0.151      c0,0.331,0.018,0.583,0.084,0.754C60.589,68.806,60.729,68.604,60.908,68.604z"/><path fill="none" d="M60.564,87.468c-0.031,0.09-0.051,0.198-0.063,0.322c0.05-0.018,0.091-0.035,0.141-0.053      C60.6,87.662,60.573,87.569,60.564,87.468z"/><path fill="none" d="M62.613,58.368c0-4.088-2.428-7.479-6.11-8.956c3.246,1.777,5.416,4.908,5.416,8.804      c0,4.135-2.026,7.243-5.604,8.916C60.337,65.916,62.613,62.72,62.613,58.368z"/><path fill="none" d="M43.351,61.566c1.071,3.305,4.003,5.936,8.723,6.178c5.069-0.395,8.942-4.425,8.942-9.509      c0-5.09-3.853-9.03-8.942-9.434c-7.017,0.383-9.19,5.357-9.19,9.822c0,0.262,0.013,0.521,0.034,0.779      c1.961-2.604,4.459-5.543,6.16-6.16c6.027-2.186,10.61,2.962,10.61,2.962l-1.41,0.492c0,0-1.479,5.007-4.829,6.452      c-4.781,2.063-7.538-1.695-9.906-1.622C43.485,61.529,43.414,61.556,43.351,61.566z"/><path fill="none" d="M45.128,58.919c0,0,2.6,5.147,8.214,3.313c3.561-1.164,3.878-6.381,3.878-6.381s-2.468-2.115-4.865-1.516      c0.282,0.987,0.688,5.846-0.812,5.958c-1.547,0.115-1.903-4.794-1.744-5.958C46.669,54.996,45.128,58.919,45.128,58.919z"/><path fill="none" d="M60.566,88.942c-0.009,0.002-0.015,0.005-0.022,0.007c0.004,0.018,0.008,0.041,0.014,0.058      C60.561,88.985,60.561,88.962,60.566,88.942z"/><path fill="none" d="M28.254,74.981c0.363,0.674,0.659,4.136,0.659,4.136l0.557-0.669c0,0,0.57-2.839,1.1-3.278      c0.77-0.639,2.204,0.173,3.173-0.07c0.151-0.038,0.357-0.138,0.58-0.257c-0.143-0.268-0.423-0.774-0.569-0.926      c-0.184-0.189-0.593-0.557-0.846-0.635c-1.315-0.4-4.203,0.458-5.5,0c-0.356-0.125-0.791-0.689-1.128-0.86      c-0.297-0.151-1.198-0.109-1.547-0.067c0.116,0.125,0.119,0.143,0.231,0.313c0.846,1.27,1.608,3.911,2.362,4.82      c0.449,0.543,0.705,1.085,0.705,1.085S27.691,74.983,28.254,74.981z"/><path fill="none" d="M61.236,89.073c0.063-0.098,0.114-0.223,0.137-0.396c-0.077,0.027-0.157,0.054-0.236,0.079      C61.192,88.839,61.225,88.95,61.236,89.073z"/><path fill="none" d="M87.29,12.233c-3.913-1.646-16.175,8.505-21.081,12.103c-1.192,0.875-6.698,7.333-6.698,7.333l-0.518-1.085      l2.773-3.287c0,0-9.493-1.943-11.135-2.256c-4.338-0.827-12.312,0.288-16.219-1.762C28.208,18.908,15.658,2.198,10.37,5.583      c-1.718,1.1-0.933,4.875,0.423,8.284c1.066,2.681,2.619,4.989,2.68,6.592c0.053,1.398-0.285,3.395,0.07,4.748      c0.477,1.819,3.807,6.487,3.807,6.487s-2.293,3.896-2.35,5.358c-0.046,1.196,0.985,3.577,0.905,4.771      c-0.22,3.271-3.232,9.276-3.419,12.55c-0.155,2.715,1.269,6.944,1.551,10.61c0.188,2.442,1.085,7.846,2.292,9.977      c0.335,0.592,0.961,1.227,1.68,1.854c1.013-0.909,2.021-1.761,2.992-1.925c1.234-0.206,3.12,0.7,3.455,1.904      c0.273,0.978-0.9,2.45-2.225,3.58c1.399,1.381,3.475,3.541,3.475,3.541l3.208-1.458l-0.047-1.738c0,0-1.444-1.606-1.833-2.211      c-0.944-1.461-2.315-4.358-3.055-6.25c-0.091-0.232-0.088-0.357-0.033-0.412l-0.006-0.004c0,0,0.007-0.001,0.012-0.001      c0.275-2.147,0.967-0.882,0.835-0.108c0.638-0.078,1.362-0.141,1.73-0.021c0.344,0.111,0.836,0.717,1.175,0.846      c1.275,0.483,4.14-0.368,5.453,0c0.387,0.107,1.03,0.663,1.269,0.987c0.12,0.162,0.336,0.702,0.447,0.986      c0.976-0.61,2.091-1.474,2.091-1.474s-2.028,2.351-2.914,2.867c-0.641,0.375-2.164-0.24-2.726,0.245      c-0.593,0.513-1.657,4.186-1.657,4.186l0.036,1.868c0,0,4.935,2.221,6.698,2.679c1.16,0.302,5.405,0.847,5.405,0.847      s-4.082,0.236-5.37-0.036c-1.733-0.365-6.957-2.556-6.957-2.556s-2.774,1.039-3.161,1.499c-0.915,1.29,3.856,5.545,7.685,6.415      c2.961,0.673,7.689-0.357,13.96-0.599c4.431-0.172,8.728-1.324,12.044-2.504c0.058-0.564,0.271-1.031,0.561-1.244v-0.841      c-0.338-0.25-0.575-0.845-0.575-1.542s0.237-1.294,0.577-1.543v-0.979c-0.34-0.25-0.577-0.846-0.577-1.544      c0-0.697,0.237-1.293,0.577-1.543v-0.885c-0.34-0.25-0.577-0.846-0.577-1.543c0-0.698,0.237-1.294,0.577-1.544v-0.932      c-0.34-0.25-0.577-0.847-0.577-1.544c0-0.696,0.237-1.293,0.577-1.543v-0.884c-0.34-0.251-0.577-0.848-0.577-1.545      c0-0.085,0.006-0.168,0.013-0.25c-0.677-0.216-1.315-0.706-1.633-0.976c-1.607,0.958-3.49,1.519-5.51,1.519      c-5.651,0-9.032-3.018-10.322-6.749c-1.203,0.601-2.615,1.823-2.615,1.823s0.925-1.431,2.234-3.233      c-1.162-5.805,2.331-12.577,9.926-12.577c6.275,0.197,11.397,4.612,11.397,10.35c0,2.114-0.649,4.077-1.758,5.717      c0.535,0.385,1.545,1.479,0.022,3.63c0.062,0.226,0.101,0.477,0.101,0.747c0,0.697-0.237,1.294-0.575,1.543v0.887      c0.338,0.249,0.575,0.846,0.575,1.542c0,0.697-0.237,1.294-0.575,1.543v0.935c0.338,0.248,0.575,0.844,0.575,1.542      c0,0.697-0.237,1.293-0.575,1.542v0.887c0.338,0.249,0.575,0.845,0.575,1.542c0,0.698-0.237,1.294-0.575,1.543v0.981      c0.338,0.248,0.575,0.845,0.575,1.542c0,0.698-0.237,1.294-0.577,1.543v0.839c0.172,0.126,0.32,0.342,0.422,0.615      c0.649-0.256,1.264-0.509,1.79-0.741c13.476-5.942,14.438-7.506,18.369-14.652c4.886-8.617,2.349-14.328,3.329-19.899      c0.568-3.231,2.881-3.809,2.682-7.577c-0.163-3.088-0.229-8.786,0.568-11.881c0.39-1.507,2.291-4.02,2.644-5.534      C91.912,23.396,90.749,13.688,87.29,12.233z"/><path fill="none" d="M60.905,96.009c-0.163,0-0.295-0.171-0.334-0.399c-0.08,0.191-0.104,0.476-0.104,0.833      c0,0.638,0.055,1,0.425,1c0.369,0,0.491-0.362,0.491-1c0-0.356-0.044-0.641-0.144-0.832      C61.201,95.839,61.071,96.009,60.905,96.009z"/><path fill="none" d="M60.558,85.083c0.014-0.277,0.16-0.498,0.348-0.498c0.196,0,0.353,0.237,0.353,0.531v0.002      c0.097-0.169,0.14-0.427,0.14-0.779c0-0.368-0.049-0.658-0.153-0.849c-0.036,0.236-0.169,0.414-0.336,0.414      c-0.162,0-0.289-0.161-0.333-0.381c-0.073,0.193-0.095,0.472-0.095,0.815C60.48,84.661,60.496,84.912,60.558,85.083z"/><path fill="none" d="M60.893,91.944c-0.157,0-0.282-0.152-0.33-0.361c-0.064,0.192-0.082,0.465-0.082,0.794      s0.018,0.581,0.084,0.752c0.024-0.258,0.165-0.457,0.341-0.457c0.188,0,0.335,0.217,0.348,0.49      c0.1-0.168,0.145-0.428,0.145-0.785c0-0.382-0.052-0.679-0.166-0.868C61.201,91.757,61.064,91.944,60.893,91.944z"/><path fill="none" d="M61.253,87.43c-0.002,0.025-0.006,0.05-0.011,0.075c0.018-0.005,0.034-0.012,0.049-0.019      C61.282,87.463,61.266,87.45,61.253,87.43z"/><path fill="none" d="M60.564,81.026c0.024-0.259,0.165-0.459,0.344-0.459c0.185,0,0.332,0.217,0.345,0.491      c0.1-0.169,0.145-0.43,0.145-0.786c0-0.352-0.043-0.633-0.138-0.824v0.024c0,0.295-0.158,0.531-0.352,0.531      c-0.192,0-0.346-0.229-0.351-0.516c-0.062,0.191-0.077,0.463-0.077,0.784C60.48,80.604,60.498,80.855,60.564,81.026z"/><path d="M88.23,11.481c-7.033-2.93-25.828,14.407-25.828,14.407s-8.793-1.403-11.771-1.904      c-4.039-0.68-11.481-0.448-15.407-1.615C28.878,18.017,16.718,1.525,9.83,4.712c-2.176,1.007-0.82,7.336,0,9.589      c0.536,1.472,2.351,4.12,2.727,5.64c0.348,1.415-0.338,4.412,0,5.829c0.409,1.714,3.666,6.017,3.666,6.017      s-1.921,3.858-2.068,5.264c-0.12,1.137,0.795,3.37,0.752,4.513c-0.123,3.304-3.214,9.481-3.384,12.784      c-0.086,1.664,0.781,4.935,1.034,6.58c0.559,3.641,0.915,11.271,2.726,14.477c0.379,0.672,1.074,1.407,1.893,2.153      c-1.197,1.059-2.386,1.952-3.507,1.631c-3.126-0.896-2.467-3.948-2.467-3.948s-2.397,3.052,1.692,5.711      c1.998,1.299,4.626,1.707,6.893,0.97c0.424-0.138,0.984-0.452,1.569-0.865c0.337,0.294,0.641,0.576,0.884,0.834      c0.811,0.861,1.926,1.761,3.114,3.046c-0.303,1.506,4.758,5.602,6.85,6.45c3.571,1.451,11.565,0.119,15.417,0      c3.136-0.097,8.305-1.032,12.483-2.301c0.1,0.313,0.25,0.567,0.436,0.711v1.049c-0.33,0.256-0.561,0.844-0.561,1.532      c0,0.696,0.237,1.291,0.575,1.542v0.973c-0.345,0.244-0.591,0.845-0.591,1.551c0,0.923,0.416,1.669,0.93,1.669      s0.93-0.746,0.93-1.669c0-0.688-0.233-1.278-0.564-1.533V93.92c0.34-0.25,0.577-0.845,0.577-1.543      c0-0.708-0.244-1.31-0.591-1.552v-1.01c0.303-0.213,0.524-0.698,0.578-1.29c0.242-0.086,0.485-0.174,0.716-0.262      c5.632-2.142,14.317-6.608,17.701-11.599c3.475-5.119,6.125-9.402,5.852-23.963c-0.026-1.493,2.917-5.267,3.006-6.654      c0.198-3.096-0.068-4.582,0.075-7.681c0.076-1.713,0.473-5.183,1.128-6.768c0.352-0.857,1.635-2.303,1.879-3.197      C93.326,24.212,92.24,13.152,88.23,11.481z M60.502,87.79c0.012-0.124,0.031-0.232,0.063-0.322      c0.009,0.102,0.035,0.194,0.078,0.27C60.593,87.755,60.552,87.772,60.502,87.79z M51.544,60.294      c1.5-0.112,1.094-4.971,0.812-5.958c2.397-0.6,4.865,1.516,4.865,1.516s-0.317,5.217-3.878,6.381      c-5.615,1.834-8.214-3.313-8.214-3.313s1.541-3.923,4.671-4.583C49.641,55.5,49.997,60.409,51.544,60.294z M53.448,63.149      c3.35-1.445,4.829-6.452,4.829-6.452l1.41-0.492c0,0-4.583-5.147-10.61-2.962c-1.7,0.617-4.199,3.556-6.16,6.16      c-0.021-0.259-0.034-0.518-0.034-0.779c0-4.465,2.173-9.439,9.19-9.822c5.09,0.403,8.942,4.344,8.942,9.434      c0,5.084-3.873,9.114-8.942,9.509c-4.72-0.242-7.651-2.873-8.723-6.178c0.063-0.011,0.134-0.037,0.192-0.039      C45.911,61.454,48.667,65.212,53.448,63.149z M61.919,58.217c0-3.896-2.17-7.027-5.416-8.804c3.683,1.477,6.11,4.868,6.11,8.956      c0,4.352-2.276,7.548-6.298,8.765C59.893,65.46,61.919,62.352,61.919,58.217z M61.28,64.516      c0.372,0.276,0.903,0.959,0.051,2.318c-0.128-0.119-0.271-0.191-0.423-0.191c-0.303,0-0.564,0.26-0.736,0.656      c-0.405-0.152-0.789-0.502-1.014-0.739C59.961,65.978,60.675,65.291,61.28,64.516z M60.961,67.248      c-0.099,0.064-0.202,0.1-0.306,0.112c0.061-0.077,0.136-0.131,0.25-0.131C60.928,67.229,60.94,67.245,60.961,67.248z       M60.485,68.159c0.314,0.024,0.618-0.039,0.89-0.235c0.014,0.12,0.022,0.246,0.022,0.387c0,0.357-0.045,0.617-0.145,0.786      c-0.013-0.275-0.16-0.493-0.345-0.493c-0.179,0-0.319,0.202-0.344,0.461c-0.066-0.171-0.084-0.423-0.084-0.754      C60.48,68.256,60.485,68.212,60.485,68.159z M60.908,71.942c0.185,0,0.332-0.218,0.345-0.493c0.1,0.192,0.145,0.477,0.145,0.833      c0,0.363-0.047,0.623-0.148,0.792c-0.026-0.254-0.165-0.451-0.341-0.451c-0.17,0-0.305,0.183-0.339,0.421      c-0.069-0.17-0.089-0.424-0.089-0.762c0-0.331,0.018-0.606,0.084-0.797C60.591,71.742,60.729,71.942,60.908,71.942z       M60.908,75.96c0.185,0,0.332-0.218,0.345-0.491c0.1,0.191,0.145,0.476,0.145,0.833c0,0.365-0.047,0.628-0.15,0.796      c-0.033-0.245-0.167-0.433-0.339-0.433c-0.166,0-0.298,0.173-0.335,0.401c-0.073-0.17-0.093-0.425-0.093-0.765      c0-0.332,0.018-0.606,0.084-0.798C60.591,75.762,60.729,75.96,60.908,75.96z M60.908,80.004c0.193,0,0.352-0.236,0.352-0.531      v-0.024c0.095,0.191,0.138,0.473,0.138,0.824c0,0.356-0.045,0.617-0.145,0.786c-0.013-0.274-0.16-0.491-0.345-0.491      c-0.179,0-0.319,0.2-0.344,0.459c-0.066-0.171-0.084-0.423-0.084-0.754c0-0.321,0.016-0.593,0.077-0.784      C60.563,79.774,60.716,80.004,60.908,80.004z M60.575,83.523c0.044,0.22,0.171,0.381,0.333,0.381c0.167,0,0.3-0.178,0.336-0.414      c0.104,0.19,0.153,0.48,0.153,0.849c0,0.353-0.043,0.61-0.14,0.779v-0.002c0-0.294-0.156-0.531-0.353-0.531      c-0.188,0-0.334,0.221-0.348,0.498c-0.062-0.171-0.077-0.422-0.077-0.744C60.48,83.995,60.502,83.717,60.575,83.523z       M61.253,87.43c0.013,0.021,0.029,0.033,0.038,0.057c-0.015,0.007-0.031,0.014-0.049,0.019      C61.247,87.479,61.251,87.455,61.253,87.43z M60.566,88.942c-0.006,0.02-0.006,0.043-0.009,0.064      c-0.006-0.017-0.01-0.04-0.014-0.058C60.552,88.947,60.558,88.944,60.566,88.942z M61.384,96.442c0,0.638-0.122,1-0.491,1      c-0.37,0-0.425-0.362-0.425-1c0-0.357,0.023-0.642,0.104-0.833c0.039,0.229,0.171,0.399,0.334,0.399      c0.166,0,0.296-0.17,0.335-0.398C61.34,95.802,61.384,96.086,61.384,96.442z M61.397,92.377c0,0.357-0.045,0.617-0.145,0.785      c-0.013-0.273-0.16-0.49-0.348-0.49c-0.176,0-0.316,0.199-0.341,0.457c-0.066-0.171-0.084-0.423-0.084-0.752      s0.018-0.602,0.082-0.794c0.048,0.209,0.173,0.361,0.33,0.361c0.172,0,0.309-0.188,0.339-0.436      C61.346,91.698,61.397,91.995,61.397,92.377z M61.236,89.073c-0.012-0.123-0.044-0.234-0.1-0.316      c0.079-0.025,0.159-0.052,0.236-0.079C61.351,88.851,61.3,88.976,61.236,89.073z M91.062,27.051      c-0.353,1.515-2.254,4.027-2.644,5.534c-0.798,3.095-0.731,8.792-0.568,11.881c0.199,3.768-2.113,4.346-2.682,7.577      c-0.98,5.571,1.557,11.282-3.329,19.899c-3.931,7.146-4.894,8.71-18.369,14.652c-0.526,0.232-1.141,0.485-1.79,0.741      c-0.102-0.273-0.25-0.489-0.422-0.615v-0.839c0.34-0.249,0.577-0.845,0.577-1.543c0-0.697-0.237-1.294-0.575-1.542v-0.981      c0.338-0.249,0.575-0.845,0.575-1.543c0-0.697-0.237-1.293-0.575-1.542v-0.887c0.338-0.249,0.575-0.845,0.575-1.542      c0-0.698-0.237-1.294-0.575-1.542v-0.935c0.338-0.249,0.575-0.846,0.575-1.543c0-0.696-0.237-1.293-0.575-1.542v-0.887      c0.338-0.249,0.575-0.846,0.575-1.543c0-0.271-0.039-0.521-0.101-0.747c1.522-2.151,0.513-3.245-0.022-3.63      c1.108-1.64,1.758-3.603,1.758-5.717c0-5.737-5.122-10.153-11.397-10.35c-7.596,0-11.088,6.772-9.926,12.577      c-1.309,1.803-2.234,3.233-2.234,3.233s1.412-1.223,2.615-1.823c1.291,3.731,4.671,6.749,10.322,6.749      c2.02,0,3.902-0.561,5.51-1.519c0.317,0.27,0.956,0.76,1.633,0.976c-0.007,0.082-0.013,0.165-0.013,0.25      c0,0.697,0.237,1.294,0.577,1.545v0.884c-0.34,0.25-0.577,0.847-0.577,1.543c0,0.697,0.237,1.294,0.577,1.544v0.932      c-0.34,0.25-0.577,0.846-0.577,1.544c0,0.697,0.237,1.293,0.577,1.543v0.885c-0.34,0.25-0.577,0.846-0.577,1.543      c0,0.698,0.237,1.294,0.577,1.544v0.979c-0.34,0.249-0.577,0.846-0.577,1.543s0.237,1.292,0.575,1.542v0.841      c-0.289,0.213-0.503,0.68-0.561,1.244c-3.316,1.18-7.613,2.332-12.044,2.504c-6.271,0.241-11,1.271-13.96,0.599      c-3.829-0.87-8.6-5.125-7.685-6.415c0.387-0.46,3.161-1.499,3.161-1.499s5.223,2.19,6.957,2.556      c1.289,0.272,5.37,0.036,5.37,0.036s-4.246-0.545-5.405-0.847c-1.763-0.458-6.698-2.679-6.698-2.679l-0.036-1.868      c0,0,1.064-3.673,1.657-4.186c0.562-0.485,2.085,0.13,2.726-0.245c0.886-0.517,2.914-2.867,2.914-2.867      s-1.115,0.863-2.091,1.474c-0.111-0.284-0.327-0.824-0.447-0.986c-0.239-0.324-0.882-0.88-1.269-0.987      c-1.313-0.368-4.178,0.483-5.453,0c-0.339-0.129-0.831-0.734-1.175-0.846c-0.368-0.119-1.092-0.057-1.73,0.021      c0.132-0.773-0.56-2.039-0.835,0.108c-0.005,0-0.012,0.001-0.012,0.001l0.006,0.004c-0.055,0.055-0.058,0.18,0.033,0.412      c0.74,1.892,2.111,4.789,3.055,6.25c0.39,0.604,1.833,2.211,1.833,2.211l0.047,1.738l-3.208,1.458c0,0-2.076-2.16-3.475-3.541      c1.325-1.13,2.498-2.603,2.225-3.58c-0.335-1.204-2.221-2.11-3.455-1.904c-0.971,0.164-1.979,1.016-2.992,1.925      c-0.719-0.627-1.345-1.262-1.68-1.854c-1.207-2.131-2.104-7.534-2.292-9.977c-0.282-3.666-1.707-7.896-1.551-10.61      c0.187-3.274,3.2-9.279,3.419-12.55c0.081-1.194-0.951-3.575-0.905-4.771c0.057-1.462,2.35-5.358,2.35-5.358      s-3.33-4.668-3.807-6.487c-0.355-1.353-0.018-3.35-0.07-4.748c-0.061-1.603-1.614-3.911-2.68-6.592      c-1.356-3.41-2.141-7.184-0.423-8.284c5.288-3.384,17.837,13.325,24.042,17.697c3.907,2.05,11.881,0.936,16.219,1.762      c1.642,0.313,11.135,2.256,11.135,2.256l-2.773,3.287l0.518,1.085c0,0,5.506-6.458,6.698-7.333      c4.906-3.598,17.168-13.749,21.081-12.103C90.749,13.688,91.912,23.396,91.062,27.051z M28.031,78.572      c0,0-0.256-0.542-0.705-1.085c-0.754-0.909-1.516-3.551-2.362-4.82c-0.113-0.17-0.116-0.188-0.231-0.313      c0.35-0.042,1.25-0.084,1.547,0.067c0.337,0.171,0.771,0.735,1.128,0.86c1.297,0.458,4.184-0.4,5.5,0      c0.253,0.078,0.662,0.445,0.846,0.635c0.146,0.151,0.426,0.658,0.569,0.926c-0.223,0.119-0.429,0.219-0.58,0.257      c-0.969,0.243-2.404-0.568-3.173,0.07c-0.53,0.439-1.1,3.278-1.1,3.278l-0.557,0.669c0,0-0.295-3.462-0.659-4.136      C27.691,74.983,28.031,78.572,28.031,78.572z"/></g></g></g></g><text x="0" y="115" fill="#000000" font-size="5px" font-weight="bold" font-family="'Helvetica Neue', Helvetica, Arial-Unicode, Arial, Sans-serif">Created by Arancha R</text><text x="0" y="120" fill="#000000" font-size="5px" font-weight="bold" font-family="'Helvetica Neue', Helvetica, Arial-Unicode, Arial, Sans-serif">from the Noun Project</text></svg>