<svg xmlns="http://www.w3.org/2000/svg" xmlns:xlink="http://www.w3.org/1999/xlink" version="1.1" x="0px" y="0px" viewBox="0 0 100 125" enable-background="new 0 0 100 100" xml:space="preserve"><g><rect x="-192" width="185" height="99"/><rect y="-36" width="100" height="30"/><text transform="matrix(1 0 0 1 66 -19.5)" fill="#000000" font-family="'Helvetica'" font-size="2.4">http://thenounproject.com</text><text transform="matrix(1 0 0 1 7.166 -24.5)"><tspan x="0" y="0" fill="#000000" font-family="'Helvetica-Bold'" font-size="6.1578">The Noun Project</tspan><tspan x="1.12" y="4.8" fill="#000000" font-family="'Helvetica-Bold'" font-size="4">Icon Template</tspan></text><text transform="matrix(1 0 0 1 -178.5 10.5)" fill="#000000" font-family="'Helvetica-Bold'" font-size="6.1578">Reminders</text><line fill="#000000" stroke="#FFFFFF" stroke-miterlimit="10" x1="8" y1="-14.5" x2="18" y2="-14.5"/><line fill="#000000" stroke="#FFFFFF" stroke-miterlimit="10" x1="-179" y1="16.5" x2="-162" y2="16.5"/><g><g><g><rect x="-170.802" y="31.318" fill="#000000" width="8.721" height="8.642"/><path fill="#000000" d="M-164.455,42.312h4.747v-4.703h-4.747V42.312z M-159.266,42.749h-5.63V37.17h5.63V42.749      L-159.266,42.749z M-166.221,44.062h8.279v-8.203h-8.279V44.062L-166.221,44.062z M-157.5,44.5h-9.163v-9.079h9.163V44.5      L-157.5,44.5z"/><polygon fill="#000000" points="-166.149,44.133 -166.292,43.991 -158.013,35.787 -157.871,35.929     "/></g></g></g><rect x="-179" y="58" fill="none" width="35" height="32.5"/><text transform="matrix(1 0 0 1 -179 60.1572)"><tspan x="0" y="0" fill="#000000" font-family="'Helvetica-Bold'" font-size="3">Strokes</tspan><tspan x="0" y="5" fill="#000000" font-family="'Helvetica'" font-size="2.4">Try to keep strokes at 4px</tspan><tspan x="0" y="10" fill="#000000" font-family="'Helvetica'" font-size="2.4">Minimum stroke weight is 2px</tspan><tspan x="0" y="14.5" fill="#000000" font-family="'Helvetica'" font-size="2.4">For thicker strokes use even </tspan><tspan x="0" y="17.5" fill="#000000" font-family="'Helvetica'" font-size="2.4">numbers: 6px, 8px etc.</tspan><tspan x="0" y="22" fill="#000000" font-family="'Helvetica-Bold'" font-size="2.4">Remember to expand strokes </tspan><tspan x="0" y="25" fill="#000000" font-family="'Helvetica-Bold'" font-size="2.4">before saving as an SVG </tspan></text><rect x="-136.5" y="58" fill="none" width="35" height="32.5"/><text transform="matrix(1 0 0 1 -136.5 60.1572)"><tspan x="0" y="0" fill="#000000" font-family="'Helvetica-Bold'" font-size="3">Size</tspan><tspan x="0" y="5" fill="#000000" font-family="'Helvetica'" font-size="2.4">Cannot be wider or taller than </tspan><tspan x="0" y="8.5" fill="#000000" font-family="'Helvetica'" font-size="2.4">100px (artboard size)</tspan><tspan x="0" y="13.5" fill="#000000" font-family="'Helvetica'" font-size="2.4">Scale your icon to fill as much of </tspan><tspan x="0" y="16.5" fill="#000000" font-family="'Helvetica'" font-size="2.4">the artboard as possible</tspan></text><rect x="-94" y="58" fill="none" width="35" height="32.5"/><text transform="matrix(1 0 0 1 -94 60.1572)"><tspan x="0" y="0" fill="#000000" font-family="'Helvetica-Bold'" font-size="3">Ungroup</tspan><tspan x="0" y="5" fill="#000000" font-family="'Helvetica'" font-size="2.4">If your design has more than one </tspan><tspan x="0" y="8" fill="#000000" font-family="'Helvetica'" font-size="2.4">shape, make sure to ungroup</tspan></text><rect x="-50" y="58" fill="none" width="35" height="32.5"/><text transform="matrix(1 0 0 1 -50 60.1572)"><tspan x="0" y="0" fill="#000000" font-family="'Helvetica-Bold'" font-size="3">Save as</tspan><tspan x="0" y="5" fill="#000000" font-family="'Helvetica'" font-size="2.4">Save as .SVG and make sure </tspan><tspan x="0" y="8" fill="#000000" font-family="'Helvetica'" font-size="2.4">“Use Artboards” is checked</tspan></text><text transform="matrix(1.0074 0 0 1 -125.542 30.5933)" fill="#000000" font-family="'Helvetica'" font-size="2.5731">100px</text><text transform="matrix(1.0074 0 0 1 -41 39)" fill="#000000" font-family="'Helvetica-Bold'" font-size="5.1462">.SVG</text><rect x="-126.514" y="34.815" fill="#000000" width="10.261" height="10.185"/><rect x="-126.477" y="31.766" fill="#000000" width="0.522" height="2.337"/><rect x="-116.812" y="31.766" fill="#000000" width="0.523" height="2.337"/><rect x="-127" y="32.337" fill="#000000" width="11.233" height="0.572"/><g><rect x="-83.805" y="33.844" fill="#000000" width="10.305" height="10.156"/><rect x="-76.809" y="28.707" fill="#000000" width="3.308" height="3.261"/></g><rect x="-178.5" y="22.5" fill="#000000" stroke="#FFFFFF" stroke-miterlimit="10" width="30" height="30"/><rect x="-136.5" y="22.5" fill="#000000" stroke="#FFFFFF" stroke-miterlimit="10" width="30" height="30"/><rect x="-93.5" y="22.5" fill="#000000" stroke="#FFFFFF" stroke-miterlimit="10" width="30" height="30"/><rect x="-49.5" y="22.5" fill="#000000" stroke="#FFFFFF" stroke-miterlimit="10" width="30" height="30"/></g><g><path d="M88.18,42.038c-0.156-0.092-3.885-2.27-8.724-2.667c-0.541-0.044-1.084-0.067-1.614-0.067   c-2.958,0-5.358,0.646-6.789,1.729c-0.073-0.47-0.165-0.936-0.281-1.396C94.927,37.333,96.887,16.914,96.587,8.13   c-0.06-1.788-0.215-3.181-0.335-4.035c-0.216-1.555-0.323-2.335-1.264-2.335c-0.475,0-0.888,0.35-0.974,0.816   c-4.428,23.989-20.952,25.854-25.912,25.855c-0.469,0-0.923-0.018-1.333-0.051c-2.632-2.548-5.234-3.788-7.941-3.788   c-2.267,0-4.184,0.857-5.875,1.614c-1.247,0.558-2.323,1.04-3.231,1.04c-0.881,0-2.046-0.427-3.279-0.879   c-1.744-0.641-3.722-1.365-5.931-1.365c-2.653,0-5.045,1.053-7.304,3.216c-1.391-0.061-6.254-0.468-11.661-3.221   C13.201,20.748,7.788,13.195,5.462,2.544C5.362,2.092,4.956,1.76,4.493,1.76c-0.716,0-1.282,0-1.469,5.493   c-0.141,4.136,0.208,12.119,4.121,19.108c4.381,7.824,11.875,12.287,22.288,13.275c-0.122,0.491-0.223,0.994-0.308,1.505   c-1.395-1.148-3.836-1.84-6.876-1.84c-0.558,0-1.13,0.025-1.701,0.075c-4.836,0.42-8.555,2.614-8.712,2.707   c-0.443,0.266-0.606,0.828-0.373,1.289c0.114,0.229,2.896,5.604,9.008,5.604c0.298,0,0.603-0.012,0.907-0.039   c3.243-0.282,5.931-1.271,7.51-2.607c0.112,1.958,0.429,4.022,0.973,6.196c1.573,6.295,3.389,11.164,5.688,17.326l0.182,0.483   c-1.061,0.97-3.03,3.396-3.03,8.013c0,3.683,1.826,6.624,5.097,8.585C38.708,92.631,43.655,97,49.605,97   c6.018,0,11.008-4.468,11.836-10.257c3.704-2.207,5.781-5.367,5.781-8.395c0-4.604-1.718-6.997-2.679-7.976   c2.692-6.78,4.333-11.509,5.688-17.881c0.425-1.998,0.796-4.042,0.966-6.077c0.344,0.28,0.738,0.548,1.189,0.796   c1.655,0.916,3.888,1.528,6.282,1.723c0.308,0.027,0.618,0.039,0.92,0.039l0,0c6.353,0,8.882-5.452,8.986-5.685   C88.782,42.833,88.61,42.293,88.18,42.038z M21.208,46.976c-0.248,0.021-0.496,0.032-0.737,0.032c-3.622,0-5.81-2.389-6.735-3.698   c1.307-0.629,3.924-1.707,6.984-1.972c0.512-0.044,1.026-0.067,1.529-0.067c3.585,0,6.091,1.157,6.187,2.238   C28.535,44.658,25.769,46.58,21.208,46.976z M31.771,52.049c-1.162-4.651-1.266-8.914-0.308-12.38   c1.978-0.162,8.1-0.432,10.967,2.116c0.985,0.877,1.459,1.995,1.448,3.417c0,0.027,0.001,0.054,0.003,0.081   c0.012,0.172,1.127,16.621-6.545,23.723C35.087,62.976,33.306,58.183,31.771,52.049z M49.605,94.046   c-3.75,0-6.969-2.306-8.32-5.573c2.399,0.766,5.244,1.174,8.465,1.174c3.105,0,5.865-0.487,8.228-1.308   C56.657,91.676,53.407,94.046,49.605,94.046z M68.306,52.083c-1.291,6.076-2.791,10.467-5.339,16.93   c-7.848-7.303-6.864-23.568-6.854-23.757c0.055-1.139,0.51-2.077,1.392-2.87c2.884-2.594,9.179-2.708,11.245-2.672   C69.846,43.549,69.192,47.916,68.306,52.083z M69.468,37.765c-0.93-0.047-9.351-0.376-13.28,3.154   c-1.273,1.148-1.962,2.575-2.042,4.225C54.096,45.91,52.996,64,62.777,71.436c0.006,0.004,0.012,0.004,0.016,0.008   c0.008,0.007,0.02,0.015,0.025,0.022c0.1,0.069,2.436,1.765,2.436,6.883c0,2.092-1.347,4.249-3.711,5.968   c-0.226-3.703-2.151-7.096-5.248-9.19c-0.68-0.455-1.599-0.275-2.053,0.397c-0.456,0.677-0.28,1.596,0.396,2.053   c2.485,1.679,3.973,4.471,3.973,7.466c0,0.318-0.019,0.632-0.051,0.942c-2.425,1.043-5.411,1.691-8.811,1.691   c-3.595,0-6.662-0.537-9.074-1.524c-0.044-0.365-0.074-0.732-0.074-1.109c0-2.831,1.292-5.442,3.549-7.165   c0.648-0.493,0.773-1.419,0.277-2.067c-0.494-0.649-1.421-0.773-2.068-0.278c-2.829,2.156-4.516,5.372-4.695,8.889   c-1.936-1.553-2.994-3.612-2.994-6.071c0-5.024,2.644-6.786,2.748-6.854c0.018-0.012,0.032-0.024,0.049-0.037   c0.006-0.004,0.013-0.004,0.021-0.013c9.531-7.07,8.446-25.045,8.36-26.268c0.006-1.978-0.705-3.615-2.111-4.865   c-3.904-3.47-12.004-2.669-13.049-2.549c-9.291-0.65-16.199-4.116-20.534-10.305C5.724,21.131,4.886,13.166,4.954,8.062   C12.45,29.929,32.68,30.198,33.605,30.198c0.261-0.001,0.511-0.106,0.694-0.292c1.958-1.975,3.992-2.935,6.212-2.935   c1.859,0,3.662,0.661,5.253,1.245c1.402,0.514,2.725,1,3.957,1c1.328,0,2.644-0.588,4.037-1.212   c1.585-0.708,3.223-1.441,5.069-1.441c2.248,0,4.472,1.132,6.805,3.463c0.158,0.159,0.367,0.258,0.59,0.282   c0.559,0.061,1.209,0.093,1.88,0.093C73.036,30.4,88.582,28.712,94.645,8.41c0.133,5.138-0.614,12.948-4.869,19.144   C85.557,33.691,78.726,37.126,69.468,37.765z M79.59,47.005c-0.249,0-0.503-0.011-0.756-0.032   c-2.126-0.174-4.076-0.702-5.496-1.485c-1.126-0.622-1.798-1.369-1.75-1.949c0.092-1.095,2.625-2.266,6.254-2.266   c0.478,0,0.966,0.02,1.453,0.059c3.084,0.254,5.724,1.334,7.021,1.956C85.457,44.594,83.36,47.005,79.59,47.005z"/><path d="M43.215,80.308c-2.08,0-3.772-1.693-3.772-3.774c0-2.08,1.692-3.773,3.772-3.773c2.082,0,3.773,1.693,3.773,3.773   C46.988,78.614,45.296,80.308,43.215,80.308z M43.215,74.236c-1.265,0-2.295,1.03-2.295,2.297c0,1.268,1.03,2.298,2.295,2.298   c1.267,0,2.297-1.03,2.297-2.298C45.512,75.267,44.482,74.236,43.215,74.236z"/><path d="M55.475,80.152c-2.081,0-3.772-1.692-3.772-3.772s1.691-3.773,3.772-3.773c2.08,0,3.771,1.693,3.771,3.773   S57.555,80.152,55.475,80.152z M55.475,74.084c-1.268,0-2.297,1.03-2.297,2.296s1.029,2.296,2.297,2.296   c1.265,0,2.294-1.03,2.294-2.296S56.739,74.084,55.475,74.084z"/><path d="M37.067,52.945c-0.175,0-0.352-0.01-0.527-0.03c-2.437-0.277-3.798-2.413-3.855-2.505   c-0.288-0.461-0.147-1.069,0.313-1.356c0.461-0.288,1.066-0.149,1.354,0.311c0.022,0.032,0.948,1.438,2.424,1.597   c1.109,0.118,2.328-0.475,3.622-1.769c0.384-0.385,1.008-0.385,1.392,0c0.385,0.386,0.385,1.008,0,1.394   C40.222,52.154,38.636,52.945,37.067,52.945z"/><path d="M62.126,52.945c-0.167,0-0.33-0.008-0.497-0.026c-2.329-0.251-3.683-2.197-3.868-2.482   c-0.104-0.157-0.164-0.345-0.164-0.549c0-0.543,0.439-0.983,0.982-0.983c0.335,0,0.648,0.171,0.828,0.453   c0.01,0.014,0.946,1.444,2.432,1.603c1.105,0.118,2.325-0.475,3.619-1.769c0.385-0.385,1.008-0.385,1.391,0   c0.386,0.386,0.386,1.008,0,1.394C65.282,52.154,63.695,52.945,62.126,52.945z"/></g><text x="0" y="115" fill="#000000" font-size="5px" font-weight="bold" font-family="'Helvetica Neue', Helvetica, Arial-Unicode, Arial, Sans-serif">Created by MaJo Ox</text><text x="0" y="120" fill="#000000" font-size="5px" font-weight="bold" font-family="'Helvetica Neue', Helvetica, Arial-Unicode, Arial, Sans-serif">from the Noun Project</text></svg>