<?xml version="1.0" encoding="UTF-8" standalone="no"?>
<svg width="856px" height="1193px" viewBox="0 0 856 1193" version="1.1" xmlns="http://www.w3.org/2000/svg" xmlns:xlink="http://www.w3.org/1999/xlink" xmlns:sketch="http://www.bohemiancoding.com/sketch/ns">
    <!-- Generator: Sketch 3.4.2 (15855) - http://www.bohemiancoding.com/sketch -->
    <title>platform + nave</title>
    <desc>Created with Sketch.</desc>
    <defs>
        <linearGradient x1="111.838586%" y1="30.204485%" x2="-206.712034%" y2="16.5655644%" id="linearGradient-1">
            <stop stop-color="#FFFFFF" offset="0%"></stop>
            <stop stop-color="#000000" offset="100%"></stop>
        </linearGradient>
        <filter x="-50%" y="-50%" width="200%" height="200%" filterUnits="objectBoundingBox" id="filter-2">
            <feOffset dx="0" dy="2" in="SourceAlpha" result="shadowOffsetOuter1"></feOffset>
            <feGaussianBlur stdDeviation="2" in="shadowOffsetOuter1" result="shadowBlurOuter1"></feGaussianBlur>
            <feColorMatrix values="0 0 0 0 0   0 0 0 0 0   0 0 0 0 0  0 0 0 0.35 0" in="shadowBlurOuter1" type="matrix" result="shadowMatrixOuter1"></feColorMatrix>
            <feMerge>
                <feMergeNode in="shadowMatrixOuter1"></feMergeNode>
                <feMergeNode in="SourceGraphic"></feMergeNode>
            </feMerge>
        </filter>
        <linearGradient x1="50%" y1="0%" x2="-104.001143%" y2="0%" id="linearGradient-3">
            <stop stop-color="#FFFFFF" offset="0%"></stop>
            <stop stop-color="#000000" offset="100%"></stop>
        </linearGradient>
        <linearGradient x1="142.157077%" y1="100%" x2="-162.798838%" y2="151.052752%" id="linearGradient-4">
            <stop stop-color="#FFFFFF" offset="0%"></stop>
            <stop stop-color="#000000" offset="100%"></stop>
        </linearGradient>
        <linearGradient x1="110.56005%" y1="43.9819532%" x2="50%" y2="100%" id="linearGradient-5">
            <stop stop-color="#F5515F" offset="0%"></stop>
            <stop stop-color="#9F031B" offset="100%"></stop>
        </linearGradient>
    </defs>
    <g id="Page-1" stroke="none" stroke-width="1" fill="none" fill-rule="evenodd" sketch:type="MSPage">
        <g id="platform-+-nave"  sketch:type="MSLayerGroup">
            <g id="platform" class="platform" transform="translate(0.000000, 664.000000)" stroke="#979797" sketch:type="MSShapeGroup">
                <path d="M546.076172,25.6835938 C545.642871,30.3343491 552,41.6081186 552,41.6081186 C552,41.6081186 818.608023,8.43977195 818.608023,86.0260889 L818.608023,521.913706 C818.608023,521.913706 830.954261,528.106043 837.126947,528.121094 C842.751587,528.134808 854,522 854,522 L854,86.0260889 C854,86.0260889 861.096865,25.4843193 788.138672,6.4765625 C763.421875,0.037109375 704.112526,0.0371093781 672.337891,0.037109375 C612.651025,0.0371093692 554.531089,14.4411403 554.531089,14.4411403 C554.531089,14.4411403 546.486567,21.2786896 546.076172,25.6835938 Z" id="Path-15" fill="url(#linearGradient-1)"></path>
                <path d="M778.197266,3.65625 C778.197266,3.65625 760.458984,4.59179688 760.458984,39.8261719" id="Path-16" filter="url(#filter-2)"></path>
                <path d="M805.40625,58.1152344 C805.40625,58.1152344 799.777344,33.1875 824.566406,21.8027344" id="Path-17"></path>
                <path d="M818.095703,75.0390625 C818.095703,75.0390625 831.664062,48.4570312 849.566406,55.7109375" id="Path-18"></path>
                <path d="M819.431641,103.083984 C819.431641,103.083984 846.103516,92.1386719 853.898438,101.498047" id="Path-19"></path>
                <path d="M819.285156,450.361328 C819.285156,450.361328 838.392578,466.351562 855.466797,450.298828" id="Path-20"></path>
                <path d="M249.918535,217.268567 L4.95014422,456.642609 L813.471963,456.642609 L604.851359,215 L249.918535,217.268567 Z" id="Path-10" fill="url(#linearGradient-3)"></path>
                <rect id="Rectangle-2" fill="#D8D8D8" x="0" y="456.556304" width="815.851562" height="65"></rect>
            </g>
            <g id="nave" class="nave" sketch:type="MSShapeGroup">
                <path class='smoke' d="M319.144888,867.44393 C262.921021,861.756142 219,813.13649 219,754 C219,691.039539 268.784844,640 330.197561,640 C350.535604,640 369.598378,645.597685 386,655.372245 C402.401622,645.597685 421.464396,640 441.802439,640 C503.215156,640 553,691.039539 553,754 C553,808.743727 515.361694,854.475006 465.167723,865.479053 C468.292467,874.048874 470,883.32117 470,893 C470,936.630495 435.302068,972 392.5,972 C349.697932,972 315,936.630495 315,893 C315,884.056357 316.457982,875.459835 319.144884,867.443929 Z" id="Oval-6" stroke="#EEEA66" stroke-width="33" fill="#993434"></path>
                <path d="M66.0835969,655.84041 C52.1717212,620.942732 66.0835969,519.083065 66.0835969,519.083065 L265.470064,517.536059 C265.470064,517.536059 181.690653,591.464986 167.161253,629.166864 C148.921049,676.497788 167.161254,772.634465 167.161254,772.634465 C167.161254,772.634465 85.8642734,705.459865 66.0835969,655.84041 Z" id="Path-83" stroke="#979797" fill="#101460" transform="translate(162.685303, 645.085262) rotate(58.000000) translate(-162.685303, -645.085262) "></path>
                <path d="M437.583363,737.464635 L477.52494,542.113599 C477.52494,542.113599 532.419624,639.432918 566.276794,661.483477 C608.781072,689.16574 706.609284,691.312068 706.609284,691.312068 C706.609284,691.312068 624.000017,756.866129 571.352233,765.898086 C534.32471,772.250318 437.583363,737.464635 437.583363,737.464635 Z" id="Path-83-Copy" stroke="#979797" fill="#101460" transform="translate(572.096323, 654.393326) scale(1, -1) rotate(-49.000000) translate(-572.096323, -654.393326) "></path>
                <path d="M390,739.915771 C493.277248,739.915771 577,665.226069 577,459.5 C577,253.773931 493.277248,87 390,87 C286.722752,87 203,253.773931 203,459.5 C203,665.226069 286.722752,739.915771 390,739.915771 Z" id="Oval-1" fill="url(#linearGradient-4)"></path>
                <ellipse id="Oval-2" stroke="#979797" fill="#13332F" cx="390" cy="341.833163" rx="64.0289286" ry="71.6247228"></ellipse>
                <ellipse id="Oval-3" stroke="#979797" fill="#5085E3" cx="390" cy="341.833163" rx="48.8890834" ry="51.1605163"></ellipse>
                <path d="M277.935086,157.793536 C227.766337,257.175105 260.073683,201.319917 260.073683,201.319917 L523.654751,201.973854 C523.654751,201.973854 514.797338,172.338891 506.045363,157.793536 C490.104323,131.300308 459.811606,78.9130244 437.204962,44.5361433 C407.911127,-0.00964200335 386.745337,0.811385105 386.745337,0.811385105 C386.745337,0.811385105 328.103835,58.4119672 277.935086,157.793536 Z" id="Path-82" stroke="#612020" fill="url(#linearGradient-5)"></path>
                <path d="M267.388397,173 C267.388397,173 349.37371,159.057335 391.209351,159.057335 C431.957369,159.057335 515.139374,173 515.139374,173 L532.418701,215.966145 C532.418701,215.966145 436.610199,206.19104 391.209351,206.19104 C342.470632,206.19104 250,215.966145 250,215.966145 L267.388397,173 Z" id="Rectangle-1" stroke="#979797" fill="#3F4677"></path>
                <path d="M391.864217,514.287747 C385.759896,509.373193 373.670577,504.560864 373.670577,564.79863 L373.670577,739.915771 C373.670577,739.915771 385.270443,809.793115 391.864217,809.342286 C397.399536,808.963826 410.057857,737.427905 410.057857,737.427905 L407.865313,563.5189 C407.865313,563.5189 401.858863,522.33438 391.864217,514.287747 Z" id="Path-82" stroke="#16154D" fill="#101460"></path>
                <path d="M206.055706,437.724191 C206.055706,437.724191 324.058851,467.000001 389.371647,467 C454.684444,466.999999 577.672748,435.105974 577.672729,428.983217" id="Path-5" stroke="#979797"></path>
                <path d="M206.055706,437.724191 C206.055706,437.724191 324.058851,467.000001 389.371647,467 C454.684444,466.999999 577.672748,435.105974 577.672729,428.983217" id="Path-5-Copy" stroke="#979797"></path>
                <path d="M205.382977,432.715799 C205.382977,432.715799 323.386122,461.99161 388.698919,461.991609 C454.011715,461.991608 577.000019,430.097583 577,423.974826" id="Path-5-Copy-2" stroke="#979797"></path>
                <path d="M160.330235,527.673656 C160.330235,527.673656 166.189466,639.472115 177.305,639.47212" id="Path-6" stroke="#979797"></path>
                <path d="M596.330235,539.594861 C596.330235,539.594861 602.189466,651.393321 613.305,651.393326" id="Path-6-Copy" stroke="#979797" transform="translate(604.817617, 595.494094) scale(-1, 1) translate(-604.817617, -595.494094) "></path>
                <path d="M445.974587,537.425056 C445.974587,537.425056 542.792537,528.709351 542.792536,518.698564 C542.792535,508.687776 538.024748,591.641018 538.024748,591.641018 C538.024748,591.641018 462.962116,626.122624 462.962116,617.631467 C462.962117,609.140311 445.974587,537.425056 445.974587,537.425056 Z" id="Path-8" stroke="#979797"></path>
                <path d="M448.630624,528.339793 L443.594258,495.015438 C443.594258,495.015438 530.758704,493.791487 536.103628,483.101638 C541.448552,472.411789 540.341169,510.292529 540.341169,510.292529 L448.630624,528.339793 Z" id="Path-9" stroke="#979797"></path>
                <ellipse id="Oval-4" stroke="#979797" cx="273.5" cy="525.5" rx="51.5" ry="58.5"></ellipse>
                <ellipse id="Oval-5" stroke="#979797" cx="488" cy="336.5" rx="16" ry="17.5"></ellipse>
                <path d="M320.427734,632 L338.933594,633.085938 L337.955078,655.210938 L322.117188,653.167969 L320.427734,632 Z" id="Path-11-Copy" stroke="#979797" fill="#D8D8D8"></path>
                <path d="M304.921875,604.382812 L341.933594,605.46875 L339.976562,627.59375 L308.300781,625.550781 L304.921875,604.382812 Z" id="Path-11" stroke="#979797" fill="#D8D8D8"></path>
            </g>
        </g>
    </g>
</svg>