<svg xmlns="http://www.w3.org/2000/svg" xmlns:xlink="http://www.w3.org/1999/xlink" version="1.1" x="0px" y="0px" viewBox="0 0 100 125" enable-background="new 0 0 100 100" xml:space="preserve"><g><g><path fill="#000000" d="M30.647,27.638c0,0-0.103,4.89,1.873,5.619c3.501,1.292,6.301-2.895,5.108-5.619    C36.438,24.913,32.01,25.594,30.647,27.638z"/></g></g><g><g><path fill="#000000" d="M61.809,29.575c0,0-0.17,4.363,3.066,5.385c3.234,1.022,5.108-2.384,4.427-4.256    C68.621,28.83,65.555,26.232,61.809,29.575z"/></g></g><g><g><path fill="#000000" d="M57.398,67.738L57.398,67.738c-1.039,0-1.998-0.244-2.771-0.704c-1.107-0.661-1.943-1.407-2.753-2.128    c-0.938-0.838-1.823-1.627-3.037-2.181c-1.594-0.728-2.317-0.28-4.163,0.85c-0.519,0.317-1.107,0.679-1.81,1.067l-0.292,0.163    c-2.404,1.337-4.142,2.304-6.377,2.304c-0.644,0-1.31-0.077-2.036-0.238c-2.909-0.647-2.97-2.09-3.023-3.361    c-0.015-0.355-0.029-0.691-0.103-1.019c-0.222-0.989,0.021-2.058,0.279-3.188c0.212-0.93,0.432-1.891,0.432-2.915    c0-1.542,0.492-2.502,1.114-3.718c0.396-0.774,0.846-1.651,1.267-2.88c0.217-0.63,0.434-1.35,0.665-2.111    c0.92-3.042,2.066-6.827,4.237-8.378c1.097-0.783,2.632-1.571,4.257-2.405c2.14-1.098,4.352-2.233,5.446-3.327    c1.486-1.487,1.305-7.9,1.109-10.246c-0.004-0.053-0.001-0.107,0.011-0.16c0.667-3.086,1.129-3.671,1.746-3.671    c0.206,0,0.401,0.091,0.552,0.256c0.67,0.738,0.638,3.603,0.569,4.306c-0.081,0.836,0.322,1.781,0.789,2.874    c0.523,1.226,1.118,2.616,1.216,4.28c0.18,3.062,4.011,6.893,5.269,8.152c0.979,0.979,1.381,1.883,1.768,2.757    c0.371,0.84,0.756,1.708,1.691,2.76c1.698,1.911,1.483,3.428,1.232,5.183c-0.074,0.521-0.15,1.058-0.19,1.661    c-0.091,1.365,0.205,2.265,0.58,3.402c0.325,0.989,0.693,2.108,0.865,3.742c0.341,3.236-0.281,3.887-1.782,5.458    c-0.216,0.227-0.453,0.474-0.712,0.756C61.962,66.694,59.589,67.738,57.398,67.738z M47.458,61.284    c0.568,0,1.15,0.145,1.829,0.454c1.364,0.621,2.354,1.504,3.311,2.357c0.77,0.688,1.566,1.397,2.584,2.005    c0.605,0.361,1.373,0.552,2.217,0.552l0,0c1.872,0,3.979-0.928,5.245-2.308c0.265-0.288,0.506-0.541,0.727-0.771    c1.399-1.465,1.776-1.857,1.489-4.595c-0.16-1.518-0.51-2.579-0.818-3.516c-0.379-1.151-0.737-2.239-0.631-3.813    c0.042-0.645,0.125-1.228,0.198-1.742c0.246-1.73,0.395-2.775-0.97-4.31c-1.049-1.179-1.486-2.168-1.873-3.041    c-0.378-0.855-0.706-1.594-1.541-2.429c-2.311-2.311-5.403-5.742-5.586-8.856c-0.087-1.475-0.642-2.772-1.131-3.917    c-0.504-1.178-0.979-2.292-0.871-3.405c0.086-0.883,0.013-2.096-0.115-2.843c-0.147,0.408-0.348,1.086-0.593,2.208    c0.098,1.232,0.625,8.968-1.43,11.022c-1.214,1.214-3.504,2.389-5.718,3.525c-1.589,0.815-3.089,1.585-4.121,2.323    c-1.871,1.336-2.957,4.926-3.83,7.81c-0.233,0.771-0.454,1.5-0.677,2.148c-0.446,1.303-0.914,2.216-1.327,3.022    c-0.578,1.128-0.996,1.943-0.996,3.224c0,1.146-0.243,2.215-0.458,3.156c-0.24,1.051-0.447,1.959-0.279,2.709    c0.095,0.422,0.112,0.822,0.128,1.209c0.049,1.174,0.08,1.882,2.174,2.347c0.647,0.145,1.236,0.215,1.8,0.215    c1.954,0,3.504-0.863,5.849-2.168l0.292-0.162c0.683-0.379,1.261-0.733,1.771-1.045C45.403,61.856,46.339,61.284,47.458,61.284z"/></g></g><g><g><path fill="#000000" d="M35.177,33.992c-2.817,0-5.166-1.627-6.98-4.838c-0.121-0.213-0.083-0.48,0.091-0.652    c0.114-0.113,2.841-2.776,6.039-2.776c2.756,0,4.93,1.908,6.462,5.671c0.09,0.222,0.025,0.476-0.161,0.626    C40.528,32.104,38.166,33.992,35.177,33.992z M29.36,28.994c1.572,2.597,3.528,3.913,5.817,3.913c2.004,0,3.743-1.02,4.441-1.493    c-1.333-3.055-3.111-4.604-5.292-4.604C32.136,26.811,30.112,28.349,29.36,28.994z"/></g></g><g><g><path fill="#000000" d="M65.011,35.932c-1.999,0-4.005-0.961-5.961-2.855c-0.164-0.159-0.212-0.404-0.118-0.612    c0.098-0.217,2.434-5.324,6.45-5.324c2.084,0,4.184,1.391,6.24,4.135c0.135,0.18,0.146,0.425,0.024,0.615    C71.544,32.056,69.053,35.932,65.011,35.932z M60.093,32.568c1.651,1.512,3.305,2.278,4.918,2.278c2.83,0,4.863-2.375,5.504-3.231    c-1.759-2.249-3.484-3.389-5.133-3.389C62.603,28.226,60.659,31.489,60.093,32.568z"/></g></g><g><g><path fill="#000000" d="M75.32,77.394c-0.392,0-0.783-0.031-1.176-0.094c-1.737-0.277-3.115-1.183-4.095-2.69    c-3.558-5.472-0.878-17.61,0.439-22.575c0.06-0.223,0.148-0.545,0.262-0.954c5.045-18.11,4.153-24.483,2.518-26.64    c-0.242-0.319-0.18-0.772,0.139-1.014s0.772-0.18,1.015,0.14c2.705,3.566,1.96,12.693-2.275,27.903    c-0.113,0.401-0.201,0.718-0.259,0.937c-0.989,3.729-3.956,16.29-0.625,21.415c0.758,1.166,1.775,1.838,3.111,2.051    c8.626,1.383,17.59-15.81,18.903-20.404c1.477-5.167,2.114-12.171,1.784-15.47c-0.313-3.132-4.54-8.846-6.57-11.592    c-0.193-0.26-0.371-0.5-0.53-0.717c-0.149-0.204-0.313-0.431-0.49-0.678c-2.112-2.931-6.508-9.03-13.7-12.3    c-7.592-3.45-21.288-4.584-21.983-4.64h-2.673c-0.141,0-14.23,0.042-21.955,3.553c-7.193,3.27-11.587,9.369-13.7,12.3    c-0.178,0.247-0.341,0.474-0.491,0.677c-0.159,0.217-0.337,0.458-0.53,0.718c-2.031,2.746-6.258,8.46-6.571,11.592    c-0.33,3.299,0.309,10.303,1.785,15.47c0.24,0.839,5.986,20.542,15.474,19.024c1.494-0.239,2.621-0.971,3.445-2.237    c1.661-2.556,2.484-8.871-0.187-18.936c-0.492-1.856-4.393-23.8,0.123-29.753c0.242-0.318,0.695-0.381,1.014-0.139    c0.319,0.241,0.381,0.695,0.14,1.014c-3.854,5.081-0.649,25.597,0.123,28.508c0.888,3.348,3.513,14.691,0,20.095    c-1.044,1.607-2.535,2.575-4.43,2.879c-0.437,0.069-0.867,0.104-1.288,0.104c-9.753,0.001-15.195-18.022-15.806-20.16    c-1.403-4.91-2.226-12.093-1.833-16.012c0.353-3.528,4.578-9.24,6.848-12.308c0.191-0.259,0.368-0.497,0.525-0.713    c0.147-0.201,0.308-0.424,0.484-0.667c2.185-3.033,6.732-9.343,14.275-12.771c8.011-3.642,21.964-3.684,22.554-3.684h2.701    c0.018,0,0.037,0,0.055,0.002c0.589,0.044,14.514,1.137,22.5,4.768c7.543,3.429,12.09,9.738,14.275,12.771    c0.175,0.243,0.336,0.467,0.482,0.667c0.159,0.216,0.335,0.455,0.526,0.713c2.27,3.069,6.494,8.78,6.848,12.309    c0.393,3.919-0.431,11.102-1.833,16.012C93.16,61.142,84.393,77.394,75.32,77.394z"/></g></g><g><g><path fill="#000000" d="M49.114,57.293c5.972,0.182,6.876-3.256,7.238-4.522S54,51.686,53.528,50.38    c-0.47-1.305-0.072-1.229,1.196-1.229c1.266,0,1.99,1.99,2.894,0.904c0.905-1.085-0.18-3.98-1.99-5.79    c-1.809-1.809-6.514-1.628-6.514-1.628h-0.105c0,0-4.704-0.181-6.513,1.628c-1.81,1.81-2.896,4.705-1.99,5.79    c0.904,1.085,1.628-0.904,2.895-0.904c1.267,0,1.665-0.076,1.194,1.229c-0.47,1.305-3.185,1.124-2.823,2.39    c0.362,1.267,1.267,4.704,7.237,4.522H49.114z"/></g></g><g><g><path fill="#000000" d="M51.089,68.866c-0.769,0-1.517-0.064-2.232-0.129c-0.546-0.047-1.062-0.093-1.57-0.11    c-2.768-0.093-5.2-0.57-6.754-0.954c-3.115-0.77-3.111-0.948-3.105-1.342c0.003-0.178,0.093-0.341,0.24-0.44    c0.147-0.1,0.333-0.12,0.499-0.057c0.04,0.015,4.047,1.535,9.158,1.709c0.537,0.018,1.091,0.066,1.628,0.113    c2.012,0.177,4.092,0.359,6.113-0.919c0.254-0.161,0.59-0.085,0.749,0.168c0.16,0.253,0.085,0.588-0.168,0.748    C54.113,68.624,52.563,68.866,51.089,68.866z"/></g></g><g><g><path fill="#000000" d="M31.49,63.265c-0.005,0-0.009,0-0.014,0c-0.3-0.009-0.536-0.258-0.528-0.557    c0.191-7.357-5.455-17.308-5.512-17.407c-0.149-0.26-0.059-0.592,0.201-0.741c0.261-0.149,0.592-0.058,0.741,0.202    c0.239,0.417,5.854,10.311,5.655,17.974C32.025,63.03,31.784,63.265,31.49,63.265z"/></g></g><g><g><path fill="#000000" d="M64.188,64.043c-0.171,0-0.339-0.079-0.444-0.229c-0.173-0.245-0.114-0.584,0.131-0.757    c3.261-2.295,3.864-5.888,4.348-8.774c0.207-1.229,0.401-2.391,0.776-3.289c1.236-2.968,3.006-4.647,3.081-4.718    c0.219-0.205,0.562-0.193,0.767,0.024c0.205,0.219,0.194,0.562-0.023,0.767c-0.023,0.022-1.682,1.608-2.822,4.343    c-0.327,0.784-0.503,1.836-0.707,3.051c-0.518,3.087-1.162,6.927-4.794,9.483C64.405,64.012,64.296,64.043,64.188,64.043z"/></g></g><g><g><path fill="#000000" d="M52.397,87.092c-2.601,0-5.405-0.106-8.417-0.354c-8.061-0.661-17.574-2.524-19.413-5.051    c-0.468-0.644-0.473-1.355-0.013-1.954c2.751-3.58,2.298-8.731,2.293-8.784c-0.038-0.396,0.253-0.751,0.651-0.789    c0.396-0.037,0.75,0.253,0.789,0.65c0.023,0.233,0.52,5.765-2.586,9.805c-0.05,0.066-0.064,0.084,0.036,0.221    c2.274,3.124,29.253,8.051,47.68,1.853c-0.562-1.41-1.745-4.583-1.96-6.834c-0.037-0.398,0.253-0.751,0.652-0.788    c0.396-0.042,0.751,0.253,0.789,0.651c0.256,2.685,2.126,7.075,2.146,7.119c0.078,0.184,0.077,0.392-0.003,0.575    c-0.08,0.183-0.231,0.324-0.42,0.392C70.865,85.144,63.491,87.092,52.397,87.092z"/></g></g><g><g><line fill="#000000" x1="48.489" y1="57.299" x2="47.783" y2="61.689"/></g><g><path fill="#000000" d="M47.783,62.231c-0.028,0-0.058-0.002-0.087-0.007c-0.296-0.047-0.497-0.326-0.449-0.622l0.706-4.39    c0.048-0.296,0.326-0.498,0.622-0.448c0.296,0.047,0.498,0.325,0.45,0.622l-0.707,4.389    C48.276,62.041,48.045,62.231,47.783,62.231z"/></g></g><text x="0" y="115" fill="#000000" font-size="5px" font-weight="bold" font-family="'Helvetica Neue', Helvetica, Arial-Unicode, Arial, Sans-serif">Created by Alexander Wamhoff</text><text x="0" y="120" fill="#000000" font-size="5px" font-weight="bold" font-family="'Helvetica Neue', Helvetica, Arial-Unicode, Arial, Sans-serif">from the Noun Project</text></svg>