<svg xmlns:dc="http://purl.org/dc/elements/1.1/" xmlns:cc="http://creativecommons.org/ns#" xmlns:rdf="http://www.w3.org/1999/02/22-rdf-syntax-ns#" xmlns:svg="http://www.w3.org/2000/svg" xmlns="http://www.w3.org/2000/svg" version="1.1" xml:space="preserve" x="0px" y="0px" viewBox="0 0 100 125"><path d="m 72.625,11.34375 c -0.780901,0.02715 -1.549728,0.341941 -2.25,0.78125 -2.104489,2.805286 -5.819807,0.765763 -8.90625,1.1875 -4.347459,3.506083 -10.894162,4.004182 -16.71875,2.53125 -3.363405,-1.053294 -4.476254,2.10458 -9.59375,0.28125 -1.193872,0.27906 -2.020143,2.227864 -3,3 -2.528324,2.242969 -6.53154,1.701363 -8.84375,4.15625 -0.774234,0.631556 -1.618444,1.540365 -2.25,2.3125 -1.401594,1.544271 -2.471216,3.308409 -3.59375,5.0625 -0.27906,0.700796 -0.888665,0.892953 -1.3125,1.59375 -0.979857,0.912714 -1.540456,1.767953 -2.59375,2.46875 3.294165,0.700797 5.397885,-2.602772 8.34375,-3.09375 0.629458,1.263113 0.124816,2.667647 -0.4375,4 -0.560218,1.542173 -1.542647,2.323713 -2.875,3.09375 -2.731849,1.053293 -5.388863,2.098406 -7.84375,3.5 -0.700797,0.562316 -1.7676772,1.176393 -1.625,2.15625 0.2769616,0.281158 0.8595131,0.156158 1.28125,-0.125 1.754091,-0.700797 3.725781,-1.765579 5.96875,-1.625 0.211918,0.07134 0.0625,0.553753 0.0625,0.90625 -1.68485,2.945865 -6.4581032,2.833011 -8.84375,4.9375 -0.4951739,0.698698 -1.2847386,0.518307 -1.96875,0.875 -0.7196806,0.373478 -0.5216897,0.99625 0.1875,0.9375 1.9135531,-0.159463 3.7084962,0.484343 5.15625,1.8125 1.470835,1.401594 1.618536,4.018229 2.53125,5.5625 0.350398,0.07134 0.625,-0.15625 0.625,-0.15625 -0.14058,-0.419639 -0.287991,-0.924111 -0.21875,-1.34375 0.350398,0.841376 0.995634,1.756925 1.90625,2.25 0.774234,0 1.243443,0.696338 1.875,0.625 0.3483,-0.07134 0.14522,-0.549019 -0.0625,-0.6875 -0.633654,-0.562316 -1.055943,-1.118352 -1.6875,-1.46875 -1.193872,-0.421737 -1.183225,-2.042463 -2.375,-2.8125 -0.490977,-1.334452 -1.415548,-2.524694 -2.75,-3.15625 0.774234,-0.770038 2.042463,-1.033624 2.8125,-1.875 1.332353,-0.772135 2.314966,-1.846124 3.4375,-2.6875 1.892571,-1.472933 3.645327,-3.277067 5.1875,-4.75 0.700796,-1.263113 1.408532,-1.977957 1.96875,-3.03125 0.772136,-0.629458 0.430943,-1.890855 1.0625,-2.59375 0.981955,-4.278218 -1.419165,-9.665654 1.875,-12.75 1.615609,-1.193872 4.073897,-1.471308 5.40625,-2.875 0.560218,-0.138481 0.549111,-0.56469 0.96875,-0.84375 0.631556,-0.631556 0.725767,-1.62719 1.5,-1.90625 2.593368,0 5.676669,0.847841 7.5,-0.90625 4.488037,0.352497 8.746291,1.761015 13.09375,0.5 2.03315,0 3.518137,-1.056035 4.78125,-1.96875 1.332354,-1.263113 3.230239,-1.115978 4.84375,-0.625 -0.490977,0.700797 -1.750184,0.471032 -2.3125,1.03125 0,0.493076 0.571431,0.5 0.78125,0.5 1.399496,-0.07134 2.781618,-0.647412 3.90625,-0.71875 0.700797,0.631556 1.625276,-0.04902 2.46875,-0.1875 0.910617,-0.140579 1.618535,-0.975399 2.53125,-0.625 -0.774234,0.700797 -2.174203,0.674204 -2.875,1.375 1.542173,0.843475 3.073896,-0.261121 4.40625,-0.75 0.281158,-0.350398 0.923927,-0.430852 0.78125,-0.78125 C 74.517861,13.386304 73.039813,12.953171 72.125,13.09375 70.863986,14.006465 69.932752,14.649601 68.25,15 c 1.682752,-0.770038 3.038281,-3.069057 5.28125,-2.4375 1.334452,0.419638 1.520143,2.011213 2.5,2.78125 -2.593368,1.68485 -6.364169,1.536182 -8.1875,3.78125 -0.490977,0.138481 -0.781342,0.296921 -1.0625,0.4375 0.140579,0.631556 0.861611,0.140579 1.28125,0 2.524128,-1.961812 6.016237,-2.113985 9.3125,-3.375 0.138481,-0.140579 0.209912,-0.133839 0.28125,-0.0625 -2.945864,2.31221 -7.701455,2.170113 -10.4375,4.625 -4.27612,2.031052 -9.485354,3.029166 -13.90625,4.5 -1.892571,0.421737 -3.69689,1.031434 -5.3125,1.59375 -2.104489,0.839278 -3.645327,1.986888 -5.1875,3.25 -0.562316,0.700797 -0.977588,1.165365 -0.90625,1.9375 0.27906,0.560218 0.69862,1.140579 1.1875,1 0.140579,-0.490977 -0.631649,-0.72313 -0.28125,-1.28125 0.560218,-1.265211 2.171843,-1.611519 3.5,-1.75 3.157782,-0.281158 5.875474,0.906434 8.75,1.46875 4.490135,0.629459 9.049953,1.634115 13.46875,2.40625 2.454888,0.841376 5.28609,0.261397 7.25,1.59375 0,0.493076 -0.701165,0.65625 -1.125,0.65625 -5.255979,-1.472931 -10.052327,-2.392953 -15.3125,-3.09375 -1.892571,-0.140579 -3.549571,-0.35487 -5.375,-0.84375 -2.454887,-0.841376 -5.413373,-2.312224 -7.9375,-1.46875 -0.211918,0.209819 -0.42857,0.187592 -0.21875,0.46875 3.296263,-0.421737 6.248468,1.642861 9.40625,2.0625 2.31221,0.281158 4.48252,0.555851 6.65625,0.90625 2.736045,0.984053 5.88203,0.495818 8.125,1.96875 -1.961812,0.839278 -3.85078,1.531342 -6.09375,1.8125 -3.715902,0.700797 -7.072089,-0.62264 -10.71875,-1.25 -2.316407,-0.423835 -5.0606,-0.450705 -7.09375,0.53125 1.261015,0.843474 3.176577,0.06933 4.71875,0.28125 0.562316,-0.06924 0.953263,0.227588 1.375,0.15625 -0.841376,0.981955 -2.152159,1.881648 -3.90625,1.53125 -1.403692,-0.07344 -2.683318,0.01759 -4.15625,-0.40625 -2.03315,-0.558119 -3.850688,-0.765579 -5.8125,-0.625 0.770038,-0.981955 2.587377,-1.19862 3.78125,-1.6875 -0.20982,-0.772135 -1.104871,-0.359421 -1.59375,-0.5 -1.89467,0.490977 -2.886397,1.542555 -4.21875,2.59375 -1.051195,1.263113 -1.893137,2.306127 -3.15625,3.5 -0.350399,-0.06924 -0.698437,-0.127191 -0.625,-0.40625 -0.211918,-0.910617 0.207721,-1.821614 0,-2.59375 -0.631557,0.631557 -0.718659,1.830545 -0.4375,2.8125 0.140579,0.421737 0.227773,0.75 0.71875,0.75 -0.910616,1.332353 -1.821614,2.730147 -2.59375,4.0625 -0.281158,1.053294 -0.8392,1.562776 -1.1875,2.40625 -0.633655,0.55812 -0.502374,1.609513 -1.34375,2.03125 -0.700796,1.330255 -1.604963,2.377466 -2.375,3.5 -0.631557,0.419639 -0.703263,0.968842 -1.125,1.25 -0.348301,0.981955 -1.258838,1.618536 -1.1875,2.53125 2.314309,2.524128 -0.0042,5.904626 1.46875,8.78125 0,0.490977 0.124908,0.890671 -0.15625,1.03125 -0.27906,-0.211917 -0.263665,-0.982323 -0.6875,-1.125 -0.48888,0.350399 -0.36607,1.002282 -0.15625,1.5625 0.352496,0.702895 0.984513,1.111611 1.40625,1.53125 0.629458,0.281158 0.705362,0.696431 1.125,0.90625 1.053294,1.053294 2.328355,2.172197 3.03125,3.15625 1.542173,1.823331 2.589476,3.511581 3.78125,5.40625 2.102391,4.418798 7.286012,4.831281 10.4375,8.0625 0.121695,0.125892 1.778759,1.038436 2.71875,0.90625 0.713386,-0.102812 -1.441973,-1.270274 -2.28125,-1.9375 -3.227023,-3.436842 -8.56734,-4.014152 -10.53125,-8.78125 0,-0.702895 -0.71875,-0.642953 -0.71875,-1.34375 0.07344,-0.281158 0.571523,-0.1875 1.0625,-0.1875 3.92782,-2.10239 7.293029,1.240793 11.21875,0.1875 0.490977,-0.140579 0.506924,0.56469 1,0.84375 1.189676,0.493075 1.330729,2.549111 2.875,2.96875 1.754091,0.700797 3.910907,0.682936 5.3125,-0.4375 0.352497,-0.423835 0.859237,-1.031434 0.4375,-1.59375 -0.209819,0 -0.29692,0.138573 -0.4375,0.28125 -0.700796,-0.142677 -1.111795,0.75674 -2.09375,0.6875 -0.281158,0 -0.203171,-0.406342 -0.34375,-0.6875 -0.211917,-0.142677 -0.343842,-0.02241 -0.625,-0.09375 -0.207721,-0.629459 -0.359145,-1.799203 0.34375,-2.5 2.874527,0.841376 6.241635,0.535433 9.1875,-0.9375 3.367601,-1.682751 6.866911,2.176104 10.65625,0.84375 0.700796,-0.350398 0.84375,-1.06014 0.84375,-1.6875 l 0.28125,0 c 0.702895,0.27906 0.399601,1.06688 0.75,1.625 0.350398,0.142677 0.562684,-0.553569 1.125,-0.34375 0.207721,0.348301 0.218934,0.837009 0.78125,0.90625 0.281158,0.352496 0.08911,0.924203 0.15625,1.625 0,0.281158 -0.718658,0.281434 -0.4375,0.84375 0,0.06924 0.229779,0.138481 0.4375,0 1.122534,-0.281158 1.30576,-1.895235 1.375,-3.15625 -0.419639,-1.263113 -0.823897,-2.734513 -2.15625,-3.15625 -0.981955,-0.211918 -1.531618,-0.924019 -2.65625,-1.0625 -0.207721,0 -0.375,-0.422013 -0.375,-0.84375 0.350399,-0.209819 0.991345,-0.218842 1.625,-0.5 0.629458,-0.350399 1.252282,-0.406434 1.8125,-0.96875 0.281158,-0.27906 0.705362,-0.368167 1.125,-0.15625 0.142678,0 0.14951,-0.125092 0.21875,-0.40625 0.06924,-0.350398 0.696523,-0.502006 1.1875,-0.21875 0.490978,0.06924 0.281342,0.93295 0.5625,1.28125 0.348301,0.352497 0.640763,-0.350491 1.0625,-0.28125 0.839277,0.490977 0.484421,1.893045 0.625,2.875 0.27906,0.06924 0.712101,-0.163082 1.0625,-0.375 0.631556,-1.051195 0.700796,-2.596216 0,-3.71875 C 79.774693,66.114262 77.184666,65.638481 74.9375,65.5 73.605147,65.781158 72.472932,64.7142 71,65.0625 c -2.104489,0.07134 -3.93341,1.120634 -5.6875,2.03125 -5.467895,2.666805 -11.29358,-0.06641 -16.90625,2.25 -3.925721,1.120436 -8.284098,0.352482 -12,-1.46875 -1.751992,-1.193873 -4.533992,-0.564874 -6.5,-1.40625 0.211918,-2.03315 0.971216,-4.129748 2.09375,-5.8125 0.281158,-0.841376 0.977865,-1.252374 1.75,-2.09375 1.051196,-1.472932 2.174111,-2.66109 2.59375,-4.625 0.423836,-0.490978 0.430852,-1.055944 0.78125,-1.6875 1.401594,-0.841376 2.580453,-2.332827 3.28125,-3.875 0.421737,-2.314308 2.268137,-3.29283 3.53125,-5.1875 1.261014,-1.189676 2.295021,-3 4.46875,-3 0.423835,0 3.868627,0.04864 5.0625,-2.40625 4.416698,0.910616 5.601622,1.984053 11.84375,1 3.3697,-0.770037 3.154626,-0.426669 6.03125,-2.25 0.209819,0.211917 3.636397,1.263297 4.96875,0.5625 0,0.981955 -0.417647,2.370633 -1.75,3.28125 -1.403692,1.403692 -3.01823,2.261305 -4.5625,3.3125 -1.821233,1.265211 -3.198713,2.464843 -3.96875,4.78125 -0.841376,2.593368 -0.285524,5.105514 0.90625,7.5625 0.560218,0.770037 1.243536,1.828355 2.15625,2.53125 3.92782,3.367602 10.465409,4.269945 15.9375,3.21875 3.718,-1.191774 6.643321,-1.951547 8.46875,-4.96875 0.910616,-0.910616 1.982047,-6.761212 1.28125,-7.53125 -0.631556,2.805286 -1.770603,6.596308 -4.15625,8 -0.770037,0.839277 -1.939874,1.412898 -2.78125,1.0625 1.75409,-3.155684 0.821615,-5.668107 1.59375,-8.40625 0.841376,-1.96391 2.88658,-4.000368 4.78125,-5.125 0.560217,-0.772136 -3.500276,0.484605 -4.34375,1.1875 -1.191774,0.910617 -1.846032,1.87765 -2.40625,3.5625 -0.772135,2.383549 -0.05158,5.34185 -1.59375,7.375 -2.173729,2.524128 -5.616819,3.013481 -9.125,2.875 -3.013007,-0.421737 -5.341758,-1.975781 -7.09375,-4.21875 -0.979856,-2.17373 -1.403692,-5.105422 0,-7.28125 1.332354,-2.10239 2.603155,-3.029258 5.6875,-4.78125 4.349557,-2.104489 5.314676,-5.938158 4.125,-9.375 -1.334451,-4.628617 -5.878032,-5.263481 -10.15625,-5.125 -2.031052,0.07134 -4.904258,0.07808 -6.65625,-0.0625 -0.912714,0.140579 -4.276884,0.28125 -5.1875,0.28125 -1.053294,0 -3.517953,-0.866253 -4.21875,-1.21875 0.841376,-0.700797 2.105055,-1.102773 3.15625,-1.59375 0.702895,-0.211918 1.131648,1.759022 0.78125,2.25 1.613511,-0.421737 2.506832,-2.59375 2.71875,-2.59375 0.419639,0.06924 1.00219,0.0625 1.28125,0.0625 0.211917,0.490977 0.421829,1.181035 0.28125,2.09375 1.263113,-0.912715 1.399877,-0.545112 2.59375,-3 0,-0.629458 0.625092,-0.578171 0.90625,-0.71875 0.562316,1.053293 -0.07817,2.399785 -0.21875,3.3125 1.051195,0 2.805943,-2.658624 3.4375,-3.5 0.27906,-0.560218 0.571431,-0.939782 0.78125,-1.5 0.142677,0 0.28799,0.225582 0.21875,0.4375 -0.211918,1.892571 0.12736,3.424479 -0.5,4.96875 2.593368,-2.035249 4.493444,-5.194439 5.125,-7.15625 0.839278,0.207721 0.549019,2.104778 0.6875,2.3125 1.263113,-0.631557 2.53125,-4.680943 2.53125,-5.3125 0.07134,-0.631556 0.553753,-0.555852 0.90625,-0.90625 0.3483,-0.562316 0.906158,-0.848222 0.625,-1.6875 -0.48888,-1.053293 -1.953263,-0.355146 -2.375,-1.6875 C 75.767861,12.830545 74.979857,12.115977 74,11.625 73.552298,11.414131 73.093541,11.32746 72.625,11.34375 z m -20.90625,7.5 c -0.912714,0.490977 -1.064966,1.078171 -2.1875,1.21875 -0.562316,-0.06924 0.07799,-0.727681 -0.34375,-0.9375 -0.631557,0.350398 -0.558133,1.203171 -1.46875,1.34375 C 43.719592,21.450705 39.639738,17.879748 35.5,19.5625 c -1.051195,2.454887 -4.323897,1.9714 -5.65625,3.65625 1.963909,-0.423835 4.339751,-1.839185 6.375,-0.71875 1.82333,1.053294 4.263771,0.437408 6.4375,0.15625 1.051195,-0.281158 2.102864,-0.422105 2.875,-1.125 1.47503,-0.13848 2.685416,-0.763573 4.15625,-0.90625 0.984053,-0.27906 1.812592,-0.721124 2.09375,-1.5625 0,0 0.0067,-0.14741 -0.0625,-0.21875 z m 23.90625,0.5625 c 0.111991,-0.02413 0.21096,-0.03514 0.28125,0 -0.140579,0.631556 -0.406434,1.544822 -0.96875,1.6875 0,-0.421737 -0.787898,-0.631924 -0.4375,-1.125 0.314729,-0.209294 0.789027,-0.490112 1.125,-0.5625 z m -4,1.34375 c 0.231162,-0.02377 0.473261,-0.03567 0.71875,0 1.472932,0.770037 -2.174111,4.767861 -2.59375,5.1875 0.276962,-1.401593 0.256741,-3.018137 0.1875,-4.28125 0.369807,-0.527171 0.994014,-0.834944 1.6875,-0.90625 z m -3.75,2.03125 c 0.06973,-0.0116 0.135045,-0.0087 0.1875,0 -0.140579,0.843474 -1.491437,2.939874 -2.40625,3.78125 0.490978,-0.841376 0.08036,-2.368352 0.5,-2.71875 0.370856,-0.429606 1.230625,-0.981289 1.71875,-1.0625 z M 25.625,23 c -0.488879,0.981955 -1.116162,1.893137 -1.1875,3.15625 -0.140579,5.119594 0.55282,11.353247 -3.375,14.71875 -0.560218,1.124632 -1.533625,1.611796 -2.375,2.59375 -0.633655,0.421737 -0.906434,1.055852 -1.46875,1.40625 -0.138481,0.27906 -0.517769,0.218842 -0.65625,0.5 0.629458,-0.841376 1.34375,-2.051486 1.34375,-3.3125 -1.330255,-0.631557 -2.877558,-0.325981 -4.28125,-0.1875 2.947963,-1.542173 7.223406,-2.033914 8.625,-5.1875 0.490977,-1.124632 0.991161,-2.111887 1.0625,-3.375 -0.07134,-1.193872 -0.299203,-1.962194 -1,-2.59375 -1.96391,0.209819 -3.567064,0.988893 -4.6875,1.96875 0.55812,-1.330256 1.611703,-2.605147 2.3125,-3.9375 0.702895,-0.631556 1.109513,-1.468934 1.53125,-2.03125 C 22.731863,25.245817 24.013587,23.350398 25.625,23 z m 37.53125,1.59375 c 0.08573,0.01325 0.152355,0.06813 0.1875,0.15625 -0.211918,0.631557 -0.256924,1.265763 -0.75,1.6875 -0.279059,0.209819 -0.296921,0.263573 -0.4375,0.40625 -0.140579,-0.562316 -0.140579,-1.384023 0,-1.875 0.314729,-0.157365 0.742807,-0.414734 1,-0.375 z m -4.8125,1.09375 C 58.606811,25.6437 58.859421,25.66518 59,25.875 c -0.209819,0.631556 -0.703262,1.04237 -1.125,1.53125 -0.350398,-0.276962 -0.0089,-0.968934 -0.21875,-1.53125 0.13953,-0.03462 0.424439,-0.1437 0.6875,-0.1875 z m -25.4375,0.09375 c -0.09481,0.0097 -0.238316,0.09375 -0.34375,0.09375 -0.350399,0.841376 -0.700797,2.172105 0,2.875 0.562316,0.350399 1.267861,0.2858 1.6875,-0.0625 -0.06924,-0.421737 -1.346032,-0.08719 -1.90625,-0.71875 -0.279059,-1.051196 0.417278,-1.384114 0.625,-2.15625 -0.01731,-0.01731 -0.0309,-0.0345 -0.0625,-0.03125 z m -4.5625,0.03125 c -0.419639,0.490978 -0.979871,0.678845 -1.46875,1.3125 -0.352496,0.488879 -0.843658,1.140763 -0.5625,1.5625 0.419639,-0.281158 0.696523,-0.712101 1.1875,-1.0625 0.27906,-0.06924 0.37719,0.06259 0.65625,0.34375 0.772135,0.981955 -0.294731,1.973223 -0.15625,2.8125 0.211917,0 0.359421,-0.283441 0.5,-0.5625 0.140579,-0.702896 0.421921,-1.274693 0.5625,-1.90625 -0.702895,-0.631556 -0.437592,-1.799203 -0.71875,-2.5 z M 36.5,25.875 c -0.423836,0.421737 -0.424112,1.04237 -0.84375,1.53125 -0.140579,0.490977 0.07617,0.718842 0.5,1 0.560218,0.350398 1.384023,0.482139 1.875,0.0625 -0.281158,-0.211917 -1.667279,0.0065 -1.875,-0.90625 -0.211917,-0.841376 0.55576,-0.984605 0.625,-1.6875 l -0.28125,0 z m 4.34375,0.96875 c -0.211918,0 -0.290181,0.140671 -0.5,0.28125 -0.283258,0.490977 -0.428569,1.214292 -0.21875,1.84375 0.352497,0.281159 0.799203,0.486427 1.5,0.34375 0.350397,0.07344 0.40625,-0.290181 0.40625,-0.5 -0.211917,-0.419639 -0.837194,0.419638 -1.46875,0 -0.421737,-0.419639 0.20991,-1.477773 0.28125,-1.96875 z m 11.09375,1.8125 c 0.216671,-0.0055 0.442536,0.02346 0.6875,0.09375 1.82333,1.613512 4.895511,1.044822 7,1.1875 -2.805286,1.82333 -6.375566,-0.337102 -9.53125,-0.6875 0.632605,-0.262799 1.193736,-0.577325 1.84375,-0.59375 z m -16.90625,1.0625 c -0.350398,0.281158 -0.44424,1.064782 -0.375,1.625 0.209819,0.423835 0.517861,0.57143 0.9375,0.78125 0.770037,0.209819 1.261121,-0.142861 1.75,-0.5625 -0.629458,0 -1.354963,0.256649 -2.125,-0.09375 -0.562316,-0.281158 -0.25674,-1.189782 -0.1875,-1.75 z M 69,29.84375 c 5.032716,-0.09865 9.851632,0.505525 10.0625,6.34375 0.281158,1.89467 -0.479962,3.158716 -1.25,4.28125 -1.892571,2.524128 -4.864262,3.138678 -6.96875,5.03125 -0.981955,0.843474 -1.399693,1.558134 -2.03125,2.46875 -1.334451,2.035248 -1.178294,5.333011 -0.125,7.4375 2.031052,4.139737 7.918213,5.941774 12.40625,4.75 2.454888,-0.631557 3.933318,-1.265685 5.40625,-2.875 2.033151,-3.157783 0.215134,-9.663097 4.84375,-11.34375 -0.140579,0.419639 -1.422012,1.665364 -1.84375,2.4375 -2.03315,3.365503 -0.201455,7.790563 -2.9375,10.59375 -0.138481,0.631557 2.67402,-0.05786 2.8125,-0.125 1.89467,-0.490977 3.649785,-2.873008 4.5625,-4.625 -0.772136,6.871586 -14.449739,8.479488 -19.78125,6.375 -2.595467,-1.051196 -5.346308,-2.520695 -6.75,-5.1875 -1.051195,-2.173729 -1.240885,-4.560692 -0.46875,-6.875 0.560218,-1.892571 1.964568,-3.011304 3.4375,-4.0625 1.191774,-1.049097 4.073897,-2.535907 5.40625,-3.9375 0.979857,-1.191775 2.013389,-2.886488 1.59375,-4.5 -0.209819,-0.631556 -0.569332,-0.908532 -0.78125,-1.46875 -0.488879,-0.843474 -1.39951,-0.471033 -1.46875,-1.03125 0,-0.631557 0.357138,-1.627374 -0.0625,-2.46875 -1.332353,0.981955 -1.901884,1.758839 -2.8125,1.6875 0.13848,-0.700797 0.218659,-1.406434 -0.0625,-1.96875 -0.772136,0.702895 -1.462101,1.468842 -1.8125,1.75 -0.421737,-0.211918 0.609147,-1.265855 -0.09375,-1.96875 -1.189677,0.702895 -2.229963,1.47094 -3,1.75 0.350398,-0.55812 0.336918,-1.464292 0.125,-2.09375 -0.631556,-0.14058 -1.384022,0.638573 -1.875,0.78125 -0.562316,0.490977 -1.125184,0.625 -1.6875,0.625 C 63.91509,31.134023 63.640763,30.350399 64.0625,30 65.622507,29.98269 67.322428,29.876633 69,29.84375 z m -7.8125,0.09375 c 0.562316,0 1.388572,-0.05567 1.53125,0.15625 -0.421737,0.48888 -0.977864,1.09375 -1.75,1.09375 0.06924,-0.421737 0.0089,-0.97094 0.21875,-1.25 z m -0.96875,0.46875 c 0.04082,-0.006 0.08986,0.01394 0.125,0.03125 -0.138481,0.211918 -0.343842,0.75 -0.625,0.75 -0.209819,0 -0.368259,0.01558 -0.4375,-0.125 0.246013,-0.06058 0.651727,-0.613938 0.9375,-0.65625 z m 2.9375,0.375 c 0.140579,0.281158 -0.227773,0.915089 -0.71875,0.84375 0.13848,0 0.71875,-0.98223 0.71875,-0.84375 z M 66.71875,31 c 0,0.419639 -0.131832,1.046921 -0.34375,1.1875 l -1.28125,0 C 65.586826,31.767861 66.299111,31 66.71875,31 z m -28.125,0.46875 c 0,0 -0.140671,0.15625 -0.28125,0.15625 -0.209819,0.562316 -0.265487,1.462194 0.15625,2.09375 C 38.888389,33.999908 39.437684,34.281158 40,34 c 0.06924,-0.562316 -1.053753,-0.134023 -1.40625,-0.625 -0.419639,-0.490978 0.140579,-1.41737 0,-1.90625 z m -8,0.15625 c -0.142677,0 -0.194332,-0.01558 -0.40625,0.125 -0.27906,0.629459 -0.560218,1.558042 0,2.1875 0.211918,0.421737 0.837193,0.546829 1.46875,0.40625 0.629458,-0.06924 1.1875,-0.250184 1.1875,-0.8125 -0.350399,-0.138481 -0.558042,0.39741 -1.1875,0.46875 -0.421737,0.140579 -1.000092,-0.07362 -1.28125,-0.5625 -0.490978,-0.562316 0.14741,-1.252282 0.21875,-1.8125 z m 39.125,0 c 0.06807,-0.01414 0.11245,-0.01731 0.15625,0 -0.06924,0.281158 -0.337102,1.116161 -0.6875,1.1875 C 68.975582,32.74116 68.45982,32.75 68.25,32.75 c 0,-0.244177 0.992242,-1.026004 1.46875,-1.125 z m 2.0625,0.40625 c -0.07134,0.348301 -0.305851,1.053662 -0.65625,1.125 -0.207721,-0.07134 -0.25893,-0.0625 -0.46875,-0.0625 0,-0.350399 0.772503,-1.0625 1.125,-1.0625 z m 2.875,0.09375 c 0,0.140579 -0.448529,1.265671 -0.65625,1.40625 -0.423835,0 -0.701073,-0.02241 -0.84375,-0.09375 0,-0.138481 1.292279,-1.171921 1.5,-1.3125 z m -37.875,0.96875 c -0.562316,0.211917 -0.625092,0.837193 -0.90625,1.46875 0,0.421737 0.06268,0.859513 0.625,1.28125 0.839277,0.138481 1.321523,-0.158532 1.8125,-0.71875 -0.562316,-0.140579 -1.386213,0.575797 -2.15625,-0.125 -0.281158,-0.774234 0.832721,-1.274694 0.625,-1.90625 z m -5.75,2.3125 c -0.279058,0.560218 -0.65406,1.205453 -0.375,1.90625 0.140579,0.421737 0.846033,0.40625 1.40625,0.40625 0.348301,-0.209819 0.767769,-0.424111 0.90625,-0.84375 -0.281158,-0.06924 -1.330454,0.848208 -2.03125,0.21875 -0.350399,-0.493076 0.305668,-1.127282 0.09375,-1.6875 z M 25.75,37.4375 c -0.04406,0.0087 -0.08933,0.02788 -0.125,0.0625 -0.419639,0.631557 -0.921829,1.009206 -0.78125,2.0625 0,0.419639 0.283532,0.756832 0.84375,0.96875 0.979856,0.350398 1.892861,-0.05594 2.3125,-0.6875 -0.631557,0.06924 -1.743536,0.770037 -2.65625,0 -0.276962,-0.702895 0.288082,-1.774693 0.5,-2.40625 0,0 -0.04969,-0.0087 -0.09375,0 z m 13.5625,1.65625 c 2.156489,-0.120282 4.314823,0.384888 6.15625,0.9375 0.281158,0.140579 0.28799,0.147411 0.21875,0.21875 -1.122534,0.772135 -1.689874,1.480054 -2.53125,2.53125 -0.631556,1.053293 -1.323897,1.892861 -2.65625,2.3125 -2.664707,0.981955 -5.270603,-0.859145 -7.65625,-0.15625 1.263113,-2.245068 2.375566,-5.049204 5.53125,-5.75 0.306861,-0.04406 0.62943,-0.07657 0.9375,-0.09375 z M 29,39.84375 c -0.369806,0.157364 -0.433861,0.730841 -0.4375,1.3125 0.09855,-0.502583 0.593291,-0.838833 0.4375,-1.3125 z m -5.28125,1.59375 c -0.562316,0.772136 -0.96875,1.252466 -0.96875,2.375 0.06924,0.419639 0.259023,0.580269 0.75,0.71875 0.774234,0.142677 1.272503,-0.01786 1.625,-0.4375 -0.352497,-0.281158 -1.406434,0.419547 -1.96875,-0.28125 -0.27906,-0.841376 0.5625,-1.602864 0.5625,-2.375 z m 4.84375,0 c 9.3e-4,0.09433 0,0.19365 0,0.28125 -0.06924,0.631557 0.493443,0.758931 1.125,0.96875 0.488879,0 0.90844,-0.328263 1.1875,-0.75 -0.06924,-0.06924 -0.21201,-0.01558 -0.28125,0.125 -0.560218,0.140579 -1.408532,0.287807 -1.96875,-0.34375 -0.0438,-0.105172 -0.05346,-0.18802 -0.0625,-0.28125 z m -2.71875,4.21875 C 25.703172,45.72549 25.625,46.078263 25.625,46.5 c 0.211918,0.560218 0.422105,0.819332 1.125,1.03125 0.281158,0 0.55366,-0.133931 0.625,-0.34375 -0.211917,-0.281158 -0.497994,0.154059 -0.78125,-0.125 -0.700797,-0.140579 -0.68076,-0.986611 -0.75,-1.40625 z m 7.59375,0.15625 c 2.206689,-0.20284 4.414395,1.021441 6.5,0.53125 0.14058,0 0.1875,0.0625 0.1875,0.0625 -0.20982,1.191774 -0.828263,2.049296 -1.25,3.03125 -1.401594,1.682752 -3.020511,2.734238 -5.125,2.3125 -1.682751,-0.488879 -3.497915,-0.40625 -4.96875,-0.40625 0,-0.490978 0.421921,-0.642861 0.5625,-1.0625 C 30.537623,48.808318 30.955729,46.910617 32.5,46 c 0.315516,-0.09652 0.622259,-0.158523 0.9375,-0.1875 z m -11.3125,0.125 c -0.06924,0.06924 -0.07607,0.125092 -0.21875,0.40625 -0.138481,0.631556 0.218934,1.205361 0.78125,1.625 0.488879,0.211918 1.18295,0.124908 1.53125,-0.15625 -0.06924,-0.3483 -1.125184,0.02013 -1.6875,-0.46875 -0.558119,-0.281158 -0.05585,-1.198529 -0.40625,-1.40625 z m -6.59375,0.125 0.1875,0 c -1.051196,0.912714 -2.096216,1.556035 -3.21875,2.46875 -1.189676,0.772135 -2.9333177,1.816867 -4.40625,0.90625 1.8233308,-1.894669 5.123192,-2.111887 7.4375,-3.375 z m 2.9375,0.625 C 18.25893,46.89732 18.25,47.540273 18.25,48.03125 c 0.140579,0.348301 0.424112,0.569332 0.84375,0.78125 0.700797,0.209819 1.397503,0.202987 1.75,-0.21875 -0.352497,-0.350398 -1.392953,0.01339 -2.09375,-0.40625 -0.490978,-0.419639 -9.2e-5,-1.22094 -0.28125,-1.5 z M 22.25,48.875 c -0.13848,0.211918 -0.43076,0.618444 -0.5,1.25 -0.07134,0.562316 0.368444,1.069333 1,1.28125 0.839278,0.20982 1.390763,-0.142861 1.8125,-0.5625 -0.421737,-0.211919 -1.384114,0.709635 -2.15625,-0.0625 C 21.776792,50.361611 22.743076,49.298836 22.25,48.875 z m -4.84375,0.34375 c -0.488879,0.211917 -0.6875,0.917463 -0.6875,1.6875 -0.06924,0.633655 0.272596,1.069332 0.90625,1.28125 0.62736,0.209819 1.484513,-0.07152 1.90625,-0.5625 -0.490977,-0.06924 -1.540365,0.274326 -2.3125,-0.21875 -0.27906,-0.55812 -0.09156,-1.555944 0.1875,-2.1875 z M 21.6875,52.375 c -0.419639,0.209819 -0.642677,1.055943 -0.5,1.6875 0.20982,0.562316 0.517953,0.99326 1.21875,1.0625 0.631557,0 1.122994,-0.361611 1.40625,-0.78125 -0.562316,0 -1.408532,0.562316 -1.96875,0 -0.490977,-0.419639 0.05567,-1.547013 -0.15625,-1.96875 z m 8.15625,0 C 31.905029,52.315988 34.137695,53 35.875,53 c -1.263113,2.595467 -2.194898,5.830453 -5.5625,6.53125 -1.96391,0.488879 -3.785998,-0.569149 -5.46875,-0.21875 -0.281158,-0.350399 -0.9733,-0.765763 -0.625,-1.1875 0.352497,-0.910616 0.917371,-1.471124 1.40625,-2.3125 0.912715,-0.910616 1.339384,-2.252374 2.25,-3.09375 0.631557,-0.245489 1.281657,-0.324079 1.96875,-0.34375 z m -21.875,1.03125 C 7.9098694,53.401857 7.8644303,53.42971 7.8125,53.5 7.9509808,53.921737 8.3704498,54.259022 8.71875,54.75 8.8614272,55.173835 9.0602178,56.042371 8.5,56.53125 7.7992031,56.881648 6.7497241,56.656158 5.90625,56.375 c 0,0 -0.00884,0.140671 0.0625,0.28125 0.6294583,0.633655 1.7680451,0.491069 2.75,0.28125 0.6315565,-0.281158 0.69424,-0.993444 0.625,-1.625 C 9.1339306,54.750184 8.7077212,54.499816 8.5,53.9375 8.3410618,53.726632 8.1453917,53.419429 7.96875,53.40625 z m 11,1.34375 c -0.281158,0.423835 -9.2e-5,1.062684 -0.28125,1.625 0,0.702895 0.424203,1.07143 1.125,1.28125 0.352497,0.140579 0.74116,-0.350582 0.8125,-0.5625 -0.281158,-0.350398 -0.60487,0.336917 -1.09375,0.125 -1.053293,-0.419639 0.138297,-1.975675 -0.5625,-2.46875 z M 12.5,57.71875 c 0,0.700797 0.709819,1.611795 0.5,2.59375 -1.263113,0.631556 -2.332643,-0.97549 -3.3125,-0.90625 0.841376,0.772136 1.973406,1.522319 3.375,1.3125 0.283257,-0.06924 0.34375,-0.680851 0.34375,-1.03125 C 13.194332,58.848222 13.131556,58.140487 12.5,57.71875 z M 6.90625,58.6875 C 7.046829,59.109237 7.44424,59.672105 7.375,60.375 6.8819244,61.075797 5.6315564,60.45317 5,60.59375 5.6315564,60.805667 6.4778645,61.211918 7.25,61 7.671737,60.792279 7.88174,60.301379 7.8125,59.8125 7.5984842,59.390763 7.3993256,58.546921 6.90625,58.6875 z m 8.53125,1.46875 c 0.279059,1.120435 1.357139,2.245817 0.9375,3.71875 -0.631557,0.841376 -1.696615,0.15625 -2.46875,0.15625 0.211917,0.562316 1.189874,0.75674 2.03125,0.6875 C 16.569057,64.437592 16.788083,63.881557 17,63.25 17,63.038083 16.78125,62.914997 16.78125,62.5625 16.361611,61.580545 16.348116,60.368167 15.4375,60.15625 z m 15.59375,0.28125 c -1.261015,1.542172 -1.556036,4.370909 -2.46875,6.125 -0.20982,1.542172 -1.125276,2.299296 -1.96875,3.28125 -0.562316,0.211918 -0.977681,-0.343842 -1.1875,-0.625 0.421737,-1.961812 -0.843658,-3.707919 -0.5625,-5.53125 0.281158,0.140579 0.647411,-0.0871 0.71875,-0.4375 0.06924,-1.051195 -0.140763,-1.955454 -0.5625,-2.65625 1.966008,-0.419639 4.489077,0.475306 6.03125,-0.15625 z m -12.0625,1.625 c 0,1.122534 1.194057,1.877558 0.5625,3.28125 -0.421737,0.421737 -1.140763,-0.350398 -1.5625,0 0.06924,0 0.08491,0.07353 0.15625,0.28125 0.48888,0.211917 1.118443,0.281158 1.75,0 0.352496,-0.27906 0.34375,-0.979871 0.34375,-1.46875 0,-0.140579 -0.05366,-0.281342 -0.125,-0.5625 -0.421737,-0.560218 -0.424203,-1.319332 -1.125,-1.53125 z M 10.75,63.125 c 0,0.633655 0.426471,1.167463 0.21875,1.9375 -0.421737,0.702895 -1.5580418,0.43076 -2.1875,0.5 0.4909774,0.3504 1.484605,0.553477 2.1875,0.0625 C 11.52687,65.34594 11.375,64.522227 11.375,64.03125 11.163082,63.611611 11.100399,63.336918 10.75,63.125 z m 61.03125,3.0625 c 0.691623,0.02215 1.380495,0.16762 2.09375,0.4375 0.142677,0.214016 0.40625,0.131833 0.40625,0.34375 C 74.20991,67.45763 74.488879,68.22094 74,68.5 c -3.41586,1.733109 -7.28343,0.584151 -11.09375,0.46875 -1.363827,0.440621 -2.774969,0.717989 -4.25,0.53125 1.380612,-0.459504 2.812736,-0.575312 4.25,-0.53125 3.039628,-0.98366 5.877965,-2.877217 8.875,-2.78125 z m 3.6875,0.09375 c 0.566119,0.01003 1.160329,0.1875 1.6875,0.1875 0.772136,0.138481 0.859605,0.569333 1.5625,0.78125 0.558119,0.560218 0.986519,1.390855 1.125,2.09375 -0.348301,-0.843474 -1.468842,-0.408624 -1.75,-1.25 -1.053293,-0.841376 -2.471032,-0.0026 -3.03125,-1.40625 0,-0.209819 -0.05366,-0.27451 -0.125,-0.34375 0.175724,-0.05245 0.342544,-0.06584 0.53125,-0.0625 z m 0.84375,0.3125 c -0.224736,-0.0068 -0.449276,0.01447 -0.625,0.03125 0.981954,0.283256 2.104962,0.611611 2.875,1.03125 0,-0.138481 -0.33701,-0.125092 -0.40625,-0.40625 -0.368234,-0.475241 -1.169541,-0.635989 -1.84375,-0.65625 z M 14.25,67.65625 c 0,0.562316 0.29009,1.000184 0.21875,1.5625 -0.631556,0.560218 -1.830545,0.774418 -2.8125,0.5625 -0.770037,-0.419639 -1.399694,-0.422013 -2.03125,-0.84375 -0.1384808,0.562316 0.76777,0.493444 0.90625,1.125 0.281159,0.419639 -0.138572,0.549111 -0.28125,0.96875 -0.8413756,0.841376 -1.9555451,0.209819 -2.9375,0 0.2077213,0.560218 1.2591145,0.77241 2.03125,0.84375 0.770037,-0.20982 1.335003,-0.767953 1.6875,-1.46875 0.841376,-0.419638 2.386305,0.433027 3.4375,-0.40625 0.419639,-0.350399 0.34375,-1.218934 0.34375,-1.78125 -0.138481,-0.281158 -0.279243,-0.63174 -0.5625,-0.5625 z m 15.21875,0 c 5.68191,-0.138481 10.233179,3.805576 15.84375,3.3125 4.280317,-1.051195 8.221782,-2.53315 12.5,-0.5 4.20688,0.350398 8.543028,-1.548729 12.46875,0.625 0.142677,1.053294 -0.122718,2.183134 0.4375,3.09375 0,0.140579 0.41973,9.2e-5 0.28125,0.28125 -0.490978,0.772135 -1.899786,0.790088 -2.8125,0.71875 -3.155684,-0.841376 -6.373376,-2.457169 -9.25,-0.5625 -2.662609,1.751992 -5.906632,0.214292 -8.5,0.84375 -0.839277,0.633655 -0.47768,1.729963 -0.6875,2.5 -1.613511,0.562317 -2.870634,-0.486795 -3.78125,-1.46875 -0.350399,-0.419638 -0.36607,-1.04018 -0.15625,-1.25 1.613511,-2.104488 4.902067,-0.7839 6.375,-2.46875 0.138481,-0.207721 0.138481,-0.614063 0,-0.6875 -0.841376,0.281158 -1.797197,0.765579 -2.78125,0.625 -1.821233,0.281158 -3.790365,0.618719 -4.5625,2.09375 -0.140579,0.209819 -0.0892,0.65625 -0.4375,0.65625 -4.139737,0.352496 -8.206111,-1.892571 -12.34375,0 -1.682752,-0.281158 -2.160814,-2.189874 -3.28125,-3.03125 -0.211917,-0.841376 -1.546829,-1.118443 -1.40625,-1.75 0.419639,-0.841376 1.125092,-1.259114 1.40625,-2.03125 0.419639,-0.140579 0.267861,-0.859421 0.6875,-1 z m -10.5,1.0625 c -0.140579,0.631556 0.131556,1.687684 -0.5,2.25 -0.700797,0.631557 -1.683042,-0.0625 -2.3125,-0.0625 0.209819,0.419639 1.055944,0.5625 1.6875,0.5625 0.700797,-0.27906 1.404244,-0.585095 1.6875,-1.21875 -0.283256,-0.562316 -1.84e-4,-1.178754 -0.5625,-1.53125 z m 4.84375,1.8125 c -0.211917,0.560218 0.841376,1.712193 0,2.34375 -1.122534,0.142677 -1.837285,-0.799111 -2.75,-1.21875 0,0 -0.0067,0.227681 0.0625,0.4375 0.772135,0.490978 1.752558,1.624816 3.15625,1.0625 0.419639,-0.138481 0.4375,-0.710003 0.4375,-1.0625 -0.138481,-0.700797 -0.415272,-1.28344 -0.90625,-1.5625 z m 47.46875,1.78125 c 1.332353,0.211917 2.656526,0.627374 3.5,1.46875 0.20982,0.631557 0.508931,0.968934 0.71875,1.53125 l 0,0.34375 C 74.656526,75.515671 74.443965,74.625 73.53125,74.625 73.180852,74.062684 72.950796,73.772319 72.25,73.5625 c -0.423836,0 -0.96875,0.140487 -0.96875,-0.28125 -0.142678,-0.350399 -0.281158,-0.687592 0,-0.96875 z m -36.125,0.125 c -1.265211,0.138481 -2.377467,0.850674 -3.5,1.34375 0.562316,0.419639 1.245541,-0.07607 1.875,-0.21875 0.281158,-0.419639 0.299019,0.12719 0.4375,0.40625 0.702895,-0.07134 1.821523,-0.625184 2.3125,-1.1875 l 0.0625,-0.0625 C 36.062592,72.576073 35.796738,72.875 35.375,72.875 35.024602,72.94424 35.22549,72.50674 35.15625,72.4375 z M 71.75,72.625 c -0.1174,0.01654 -0.229923,0.04103 -0.34375,0.09375 1.122533,0.419639 1.984697,0.843933 2.96875,1.40625 0.06924,-0.06924 -0.14741,-0.281342 -0.21875,-0.5625 C 73.480631,73.195317 72.571803,72.509251 71.75,72.625 z m -52.625,1 c -0.09157,0.144382 -0.161444,0.800816 -0.53125,0.90625 -1.122534,0.490977 -2.172197,-0.337101 -3.15625,-0.6875 0,0.07134 0.01357,0.136029 0.15625,0.34375 0.770037,0.493076 1.899878,1.211825 3.09375,0.71875 0.421737,-0.138481 0.63174,-0.799111 0.5625,-1.21875 -0.05245,-0.105434 -0.09448,-0.110627 -0.125,-0.0625 z m 5.3125,0.5 c -0.06714,0.350398 0.560218,0.922013 0,1.34375 -0.700797,0.631556 -1.627283,0 -2.1875,0 0.490977,0.490979 1.344026,0.827987 2.1875,0.40625 0.421737,-0.20982 0.40625,-0.616254 0.40625,-0.96875 -0.140579,-0.27906 -0.05585,-0.71201 -0.40625,-0.78125 z m -8.84375,2.65625 0,0.15625 c 0.419639,0.421737 0.924203,0.687592 1.625,0.96875 0.839278,0.276962 1.892953,0.718566 2.59375,0.15625 -1.332353,-0.138481 -3.167555,-0.437776 -4.21875,-1.28125 z m 1.25,1.53125 c -0.123007,0.0087 -0.22212,0.05239 -0.1875,0.15625 0.700797,0.631556 1.877374,0.631648 2.71875,0.28125 -0.419639,-0.350398 -1.549203,0.0066 -2.25,-0.34375 -0.03567,-0.06924 -0.158243,-0.102405 -0.28125,-0.09375 z m 6.875,0.375 c -0.140579,0.279059 0.296921,0.218842 0.4375,0.5 1.261015,0.770037 2.730147,0.819333 4.0625,1.03125 -1.191774,-0.631556 -3.236887,-0.901792 -4.5,-1.53125 z M 48,78.90625 c 0.843474,0.138481 1.819516,0.265671 2.59375,0.40625 0.13848,0.419639 0.557857,0.47768 0.625,0.6875 C 50.098314,80.209819 48.843474,79.796645 48,79.09375 l 0,-0.1875 z M 26.125,80.375 c -0.06924,0.140579 -0.01558,0.201073 0.125,0.34375 0.841376,0.3483 2.250184,0.919639 2.8125,0.5 C 28.221124,80.868352 27.037715,80.65406 26.125,80.375 z m 1.8125,1.46875 c 0.281158,0.702895 1.542462,0.98223 2.3125,0.84375 0,0 0.01348,-0.15625 -0.125,-0.15625 -0.774234,-0.142677 -1.486703,-0.40844 -2.1875,-0.6875 z" style="" fill="#000000" fill-opacity="1" fill-rule="evenodd" stroke="none"/></svg>