<?xml version="1.0" encoding="UTF-8" standalone="no"?>
<svg width="633px" height="810px" viewBox="0 0 633 810" version="1.1" xmlns="http://www.w3.org/2000/svg" xmlns:xlink="http://www.w3.org/1999/xlink" xmlns:sketch="http://www.bohemiancoding.com/sketch/ns">
    <!-- Generator: Sketch 3.3.3 (12072) - http://www.bohemiancoding.com/sketch -->
    <title>Group</title>
    <desc>Created with Sketch.</desc>
    <defs>
        <linearGradient x1="142.157077%" y1="100%" x2="-162.798838%" y2="151.052752%" id="linearGradient-1">
            <stop stop-color="#FFFFFF" offset="0%"></stop>
            <stop stop-color="#000000" offset="100%"></stop>
        </linearGradient>
        <linearGradient x1="110.56005%" y1="43.9819532%" x2="50%" y2="100%" id="linearGradient-2">
            <stop stop-color="#F5515F" offset="0%"></stop>
            <stop stop-color="#9F031B" offset="100%"></stop>
        </linearGradient>
    </defs>
    <g id="Page-1" stroke="none" stroke-width="1" fill="none" fill-rule="evenodd" sketch:type="MSPage">
        <g id="Group" sketch:type="MSLayerGroup" transform="translate(-56.000000, 0.000000)">
            <path d="M66.0835969,655.84041 C52.1717212,620.942732 66.0835969,519.083065 66.0835969,519.083065 L265.470064,517.536059 C265.470064,517.536059 181.690653,591.464986 167.161253,629.166864 C148.921049,676.497788 167.161254,772.634465 167.161254,772.634465 C167.161254,772.634465 85.8642734,705.459865 66.0835969,655.84041 Z" id="Path-83" stroke="#979797" fill="#101460" sketch:type="MSShapeGroup" transform="translate(162.685303, 645.085262) rotate(58.000000) translate(-162.685303, -645.085262) "></path>
            <path d="M437.583363,737.464635 L477.52494,542.113599 C477.52494,542.113599 532.419624,639.432918 566.276794,661.483477 C608.781072,689.16574 706.609284,691.312068 706.609284,691.312068 C706.609284,691.312068 624.000017,756.866129 571.352233,765.898086 C534.32471,772.250318 437.583363,737.464635 437.583363,737.464635 Z" id="Path-83-Copy" stroke="#979797" fill="#101460" sketch:type="MSShapeGroup" transform="translate(572.096323, 654.393326) scale(1, -1) rotate(-49.000000) translate(-572.096323, -654.393326) "></path>
            <path d="M390,739.915771 C493.277248,739.915771 577,665.226069 577,459.5 C577,253.773931 493.277248,87 390,87 C286.722752,87 203,253.773931 203,459.5 C203,665.226069 286.722752,739.915771 390,739.915771 Z" id="Oval-1" fill="url(#linearGradient-1)" sketch:type="MSShapeGroup"></path>
            <ellipse id="Oval-2" stroke="#979797" fill="#13332F" sketch:type="MSShapeGroup" cx="390" cy="341.833163" rx="64.0289286" ry="71.6247228"></ellipse>
            <ellipse id="Oval-3" stroke="#979797" fill="#5085E3" sketch:type="MSShapeGroup" cx="390" cy="341.833163" rx="48.8890834" ry="51.1605163"></ellipse>
            <path d="M277.935086,157.793536 C227.766337,257.175105 260.073683,201.319917 260.073683,201.319917 L523.654751,201.973854 C523.654751,201.973854 514.797338,172.338891 506.045363,157.793536 C490.104323,131.300308 459.811606,78.9130244 437.204962,44.5361433 C407.911127,-0.00964200335 386.745337,0.811385105 386.745337,0.811385105 C386.745337,0.811385105 328.103835,58.4119672 277.935086,157.793536 Z" id="Path-82" stroke="#612020" fill="url(#linearGradient-2)" sketch:type="MSShapeGroup"></path>
            <path d="M267.388397,173 C267.388397,173 349.37371,159.057335 391.209351,159.057335 C431.957369,159.057335 515.139374,173 515.139374,173 L532.418701,215.966145 C532.418701,215.966145 436.610199,206.19104 391.209351,206.19104 C342.470632,206.19104 250,215.966145 250,215.966145 L267.388397,173 Z" id="Rectangle-1" stroke="#979797" fill="#3F4677" sketch:type="MSShapeGroup"></path>
            <path d="M391.864217,514.287747 C385.759896,509.373193 373.670577,504.560864 373.670577,564.79863 L373.670577,739.915771 C373.670577,739.915771 385.270443,809.793115 391.864217,809.342286 C397.399536,808.963826 410.057857,737.427905 410.057857,737.427905 L407.865313,563.5189 C407.865313,563.5189 401.858863,522.33438 391.864217,514.287747 Z" id="Path-82" stroke="#16154D" fill="#101460" sketch:type="MSShapeGroup"></path>
            <path d="M205.394494,437.487461 C205.394494,437.487461 323.397639,466.763271 388.710436,466.76327 C454.023232,466.76327 577.011536,434.869245 577.011517,428.746488" id="Path-5" stroke="#979797" sketch:type="MSShapeGroup"></path>
            <path d="M160.330235,527.673656 C160.330235,527.673656 166.189466,639.472115 177.305,639.47212" id="Path-6" stroke="#979797" sketch:type="MSShapeGroup"></path>
            <path d="M596.330235,539.594861 C596.330235,539.594861 602.189466,651.393321 613.305,651.393326" id="Path-6-Copy" stroke="#979797" sketch:type="MSShapeGroup" transform="translate(604.817617, 595.494094) scale(-1, 1) translate(-604.817617, -595.494094) "></path>
            <path d="M445.974587,537.425056 C445.974587,537.425056 542.792537,528.709351 542.792536,518.698564 C542.792535,508.687776 538.024748,591.641018 538.024748,591.641018 C538.024748,591.641018 462.962116,626.122624 462.962116,617.631467 C462.962117,609.140311 445.974587,537.425056 445.974587,537.425056 Z" id="Path-8" stroke="#979797" sketch:type="MSShapeGroup"></path>
            <path d="M448.630624,528.339793 L443.594258,495.015438 C443.594258,495.015438 530.758704,493.791487 536.103628,483.101638 C541.448552,472.411789 540.341169,510.292529 540.341169,510.292529 L448.630624,528.339793 Z" id="Path-9" stroke="#979797" sketch:type="MSShapeGroup"></path>
            <ellipse id="Oval-4" stroke="#979797" sketch:type="MSShapeGroup" cx="273.5" cy="525.5" rx="51.5" ry="58.5"></ellipse>
            <ellipse id="Oval-5" stroke="#979797" sketch:type="MSShapeGroup" cx="488" cy="336.5" rx="16" ry="17.5"></ellipse>
        </g>
    </g>
</svg>