<svg xmlns="http://www.w3.org/2000/svg" xmlns:xlink="http://www.w3.org/1999/xlink" version="1.1" x="0px" y="0px" viewBox="0 0 100 125" enable-background="new 0 0 100 100" xml:space="preserve"><path d="M13.823,50c0-24.58,12.606-45,37.312-45c24.958,0,35.042,20.42,35.042,45c0,24.706-10.084,45-35.042,45  C26.429,95,13.823,74.706,13.823,50z M81.261,50c0-21.176-8.823-38.824-30.252-38.824c-21.177,0-32.143,17.647-32.143,38.824  c0,21.554,10.966,38.824,32.143,38.824C72.438,88.824,81.261,71.554,81.261,50z M27.941,36.387c4.664-2.773,9.58-2.773,14.243,0  v2.899c-4.664-2.647-9.579-2.647-14.243,0V36.387z M42.563,50c0-3.782-3.151-7.059-6.933-7.059c-3.782,0-6.807,3.277-6.807,7.059  s2.899,0,6.681,0C39.286,50,42.563,53.782,42.563,50z M63.74,68.152c-8.193,2.269-18.403,2.016-26.975,0  C40.546,76.092,59.833,76.092,63.74,68.152z M72.689,39.286c-4.538-2.647-9.454-2.647-14.117,0v-2.899  c4.664-2.773,9.58-2.773,14.117,0V39.286z M73.067,50c0-3.782-3.277-7.059-7.059-7.059c-3.655,0-6.806,3.277-6.806,7.059  s3.277,0,7.059,0C70.042,50,73.067,53.782,73.067,50z"/></svg>